<svg xmlns="http://www.w3.org/2000/svg" xmlns:xlink="http://www.w3.org/1999/xlink" xml:space="preserve" width="160.879mm" height="114.151mm" style="shape-rendering:geometricPrecision; text-rendering:geometricPrecision; image-rendering:optimizeQuality; fill-rule:evenodd; clip-rule:evenodd" viewBox="0 0 17147 12167">
 <defs>
  <style type="text/css">
   <![CDATA[
    .fil31 {fill:#0756EC}
    .fil19 {fill:#075AEC}
    .fil11 {fill:#075DED}
    .fil47 {fill:#0761EC}
    .fil33 {fill:#0766EB}
    .fil14 {fill:#0769EB}
    .fil34 {fill:#076DEB}
    .fil15 {fill:#0772EB}
    .fil81 {fill:#0772EC}
    .fil55 {fill:#0776EB}
    .fil21 {fill:#077DEB}
    .fil52 {fill:#0782EC}
    .fil61 {fill:#088BEB}
    .fil6 {fill:#088CEB}
    .fil58 {fill:#08A5EB}
    .fil37 {fill:#0985EC}
    .fil45 {fill:#098DEC}
    .fil35 {fill:#0B68EB}
    .fil41 {fill:#0B78EC}
    .fil51 {fill:#0EB1EC}
    .fil5 {fill:#142B34}
    .fil44 {fill:#1669EC}
    .fil40 {fill:#1689ED}
    .fil74 {fill:#182E38}
    .fil27 {fill:#1877ED}
    .fil70 {fill:#1C323A}
    .fil73 {fill:#263A44}
    .fil83 {fill:#2777EE}
    .fil53 {fill:#3698EF}
    .fil69 {fill:#384B54}
    .fil85 {fill:#4C5C64}
    .fil60 {fill:#50B6F1}
    .fil42 {fill:#58A8F2}
    .fil68 {fill:#669BEF}
    .fil72 {fill:#68A7F2}
    .fil77 {fill:#76B9F4}
    .fil76 {fill:#77A9F4}
    .fil18 {fill:#7E81B6}
    .fil17 {fill:#A9C8F8}
    .fil13 {fill:#B3CBF8}
    .fil67 {fill:#B5CDF8}
    .fil71 {fill:#BCD3FA}
    .fil56 {fill:#C4CBE5}
    .fil20 {fill:#CAD8EE}
    .fil66 {fill:#CBDDFB}
    .fil16 {fill:#D3E2FB}
    .fil12 {fill:#D4DBED}
    .fil28 {fill:#D6E5FD}
    .fil23 {fill:#D9E7FE}
    .fil38 {fill:#DA6211}
    .fil8 {fill:#DBE6FB}
    .fil79 {fill:#DDEAFE}
    .fil32 {fill:#E0EAFE}
    .fil30 {fill:#E17307}
    .fil29 {fill:#E2EDFE}
    .fil10 {fill:#E3EBFA}
    .fil25 {fill:#E57C03}
    .fil59 {fill:#E68106}
    .fil80 {fill:#E78918}
    .fil22 {fill:#E7F0FE}
    .fil63 {fill:#E89996}
    .fil0 {fill:#E9F1FE}
    .fil1 {fill:#E9F2FE}
    .fil39 {fill:#EAAAA6}
    .fil48 {fill:#EBB1AE}
    .fil46 {fill:#EBB8B6}
    .fil82 {fill:#EBEDF4}
    .fil62 {fill:#ECF3FD}
    .fil64 {fill:#EDD1CE}
    .fil50 {fill:#EDF1F6}
    .fil65 {fill:#EFD4AD}
    .fil43 {fill:#F0C22F}
    .fil54 {fill:#F1C331}
    .fil57 {fill:#F2B132}
    .fil78 {fill:#F2C64C}
    .fil49 {fill:#F3B931}
    .fil84 {fill:#F4F5FA}
    .fil7 {fill:#F7E9D7}
    .fil24 {fill:#F7EBE0}
    .fil26 {fill:#F8EBE1}
    .fil3 {fill:#FAFBFE}
    .fil2 {fill:#FBFCFF}
    .fil36 {fill:#FCFDFF}
    .fil4 {fill:#FDFDFD}
    .fil75 {fill:#FEF4DC}
    .fil9 {fill:#FEFEFE}
   ]]>
  </style>
 </defs>
 <g id="Layer_x0020_1">
  <metadata id="CorelCorpID_0Corel-Layer"></metadata>
  <g id="_428186440">
   <path class="fil0" d="M4515 1130c97,74 127,115 -38,149 -62,-137 -50,-89 38,-149zm-226 15c95,97 88,62 0,159 -118,-58 -110,-94 0,-159zm451 130c-35,-39 -57,59 -45,-75 9,-91 4,-31 45,-84 174,123 2,151 0,159zm7232 -1060l308 -3c-125,80 -325,61 -473,76l-1576 125c-656,72 -1408,110 -2070,154 -673,44 -1392,134 -2067,161 -617,25 -1449,80 -2044,159l-23 734 6015 -357 75 -8 4362 -251c0,-147 0,-294 0,-442 0,-73 1,-146 -2,-219 -6,-181 -25,-73 2,-269 9,-57 46,-20 0,-75l-151 0c-131,2 -440,31 -596,54 -187,26 -456,22 -596,43 -287,44 -955,2 -1164,118z"></path>
   <path class="fil1" d="M10620 7384c215,-35 255,26 203,238l-204 11c-50,-158 -51,-105 1,-249zm331 -344l193 -2c61,133 54,96 15,245l-204 11c-55,-161 -53,-102 -4,-254zm555 29l19 233c-143,31 -265,52 -269,-123 -6,-189 127,-148 250,-110zm-914 -42l202 -10c154,240 6,298 -190,244l-12 -234zm695 -330c146,-26 83,-34 203,14 18,43 34,-74 30,96l-23 97c-3,8 -11,20 -17,30l-166 15c-24,-50 -35,-29 -45,-107 -13,-105 -7,-48 18,-145zm-657 -24c200,-54 249,15 187,231l-197 12c-38,-139 -52,-127 10,-243zm290 0l249 7 16 245 -249 10 -16 -262zm1999 -256c56,220 -57,265 -234,190 -43,-219 44,-334 234,-190zm-592 -51c249,-33 282,13 227,243l-216 13 -11 -256zm-349 9c80,-39 -102,-32 99,-35 222,-2 145,218 116,248 -99,100 -303,36 -215,-213zm-681 -43c229,-38 257,15 204,240l-209 11c-45,-161 -50,-104 5,-251zm574 263l-249 -3 -15 -244 247 -13 17 260zm-923 -271c142,-25 83,-33 202,13 39,99 49,110 -7,219l-171 17c-8,-14 -82,-19 -24,-249zm-358 -13l238 -2c50,261 -22,284 -224,237l-14 -235zm2092 -289c79,-28 145,-46 236,21 84,310 -298,353 -236,-21zm-117 -12l2 229 -232 13c-62,-229 9,-306 230,-242zm-610 156c-60,-247 216,-259 266,-104 75,233 -229,258 -266,104zm-332 -188l226 -15c28,106 27,183 -13,266 -241,46 -270,-16 -213,-251zm-654 -17c208,-51 239,19 194,237l-217 14c-14,-69 -26,-60 -21,-123l44 -128zm308 6l231 -1 15 246c-259,60 -291,-7 -246,-245zm-656 222c-49,-145 -50,-90 -1,-234 202,-40 269,32 193,227 -110,40 -53,39 -192,7zm2065 -539c101,-33 21,-34 137,-23 74,7 58,20 91,42 101,305 -306,362 -228,-19zm-116 -10l-10 239 -231 -8c-24,-114 -40,-116 11,-249l230 18zm-15 -1670c-143,367 -480,688 -972,659 -239,-15 -421,-118 -556,-237 -198,-176 -185,-321 -322,-478l-24 109c-5,0 -40,-4 -51,5l-99 108c-8,-12 -11,-29 -15,-40l-77 -156c-117,-150 -59,-1379 -59,-1596l-83 2c85,328 20,2404 20,2918 0,408 -45,2751 26,2933l2007 151 -49 -118 -120 -121c-73,-161 -171,-262 -245,-377 -81,-126 -43,-326 16,-438l-85 -100c-3,-3 -11,-8 -16,-13l4 142 -208 4c-31,-72 -25,49 -37,-109 -8,-110 -7,-41 22,-140 142,-31 97,-48 215,28l-58 -168c-77,57 -25,47 -153,3l12 -224 174 23 1265 -10c16,41 39,100 55,138 -94,-458 31,-4337 -34,-4534 -39,-119 67,-15 -58,-95l0 1784c-152,30 -34,51 -226,94 -6,-10 -7,-25 -8,-33l8 -174c-163,22 -122,22 -269,60z"></path>
   <path class="fil2" d="M4655 1787l-1 6036 -553 -42 3 -5978 551 -16zm1269 1543l-6 141c-227,14 -936,61 -1110,2 -2,-203 232,-129 459,-134 210,-5 449,-24 657,-9zm-544 -317c579,-20 533,-76 545,108 -114,86 -420,46 -583,51 -325,9 -461,64 -540,-51 47,-152 156,-94 578,-108zm-578 -231c35,-61 -54,-76 271,-78l853 -18 -14 140 -875 43c-267,8 -215,-39 -235,-87zm8 -251c-8,-182 76,-129 494,-149 127,-7 254,-15 380,-23 200,-11 208,-48 243,85 -39,111 -81,75 -243,81 -100,4 -201,7 -301,10 -180,5 -406,45 -573,-4zm1116 -490l-16 149 -1101 34 4 -134 1113 -49zm-1126 -199c48,-86 13,-51 125,-77l997 -36 2 131 -886 60c-265,14 -217,-33 -238,-78zm-773 -221c-17,1034 -2,2081 -2,3116 0,354 -61,2944 51,3065 70,82 27,63 191,80l699 46c299,20 640,66 944,69l-10 -121 29 -221c-209,-8 -410,-26 -620,-39 -134,-8 -430,27 -507,-96 30,-75 -26,-105 275,-77 99,9 193,18 292,24 203,11 439,67 613,-22l16 -105c-238,-8 -475,-32 -713,-44 -234,-12 -478,52 -474,-160 370,-84 843,127 1210,8l18 -114c-244,-34 -489,-34 -732,-49 -416,-25 -518,28 -491,-179l1165 63 0 -167 -1170 -77 4 -118c166,-28 456,5 641,14 548,27 506,75 586,-87 -50,-38 -15,-23 -100,-50l-597 -33c-485,-22 -541,36 -534,-169l1143 32c-155,-81 -82,-41 -198,-167l-756 -19c-273,-19 -199,-83 -199,-83 41,-93 -123,-107 353,-72 460,34 350,6 388,-55l-54 -61c-232,-90 -459,-13 -676,-74l3 -115c203,-48 469,46 662,-38l-22 -130c-512,-7 -647,48 -647,-144 237,-75 507,58 761,-60l94 -418 -851 -36 3 -128 951 -22c185,-83 215,-179 513,-252l-17 1 -40 -51c42,-118 1,-38 60,-111 -116,-111 -583,-53 -752,-52 -138,0 -277,2 -415,4 -366,6 -270,-1 -314,-66 48,-133 86,-90 275,-89l1018 -9c40,-57 73,77 25,-92 3,-122 -84,-356 -113,-525 86,-453 0,-1133 34,-1638l729 -40 25 1371 1 190c36,32 30,24 65,63 22,25 6,7 27,46l62 -24 0 -1660 3099 -170 0 3717 -1182 -14 -90 -17 0 52c441,147 1029,-87 1341,42l0 -3910c-399,6 -183,19 -188,37 185,-78 41,-20 113,-127l-6015 357z"></path>
   <path class="fil1" d="M9334 2165c-117,-10 -99,-32 -111,-140 71,-37 192,-24 257,5 -13,112 -20,147 -146,135zm-2385 1149l191 4c-6,118 -58,199 32,252 80,47 13,3 128,6 77,2 2,-61 173,33 -47,172 -103,94 -225,151 69,244 106,372 -52,536l63 97c101,87 515,38 678,37 333,0 415,21 522,-247 -193,-165 -355,-129 -557,-389 -113,-146 -228,-419 -200,-661l-170 -17c22,-620 462,-1243 1076,-1226l-13 358c494,-28 788,359 805,829l-805 9 -5 54 661 -13 -60 223c18,46 26,162 23,189 -6,52 1,48 -33,106 -67,114 -46,54 -85,87l-39 139 77 67 225 -324 57 146c6,11 14,26 24,37l80 -148c-63,285 81,106 -87,403 -100,179 -90,239 -162,404 -113,261 -262,557 -405,731l1182 14 0 -3717 -3099 170 0 1660z"></path>
   <path class="fil3" d="M9516 7832c183,-71 283,31 242,241 -204,130 -357,-6 -242,-241zm-264 18c109,35 152,37 76,171 -57,-1 -95,36 -122,-54 -39,-132 45,-115 46,-117zm-340 10c123,-51 141,21 117,150l-134 -37 17 -113zm-219 113c-152,23 -158,-77 -64,-164 130,29 140,41 64,164zm-366 -173c161,-8 191,77 61,172 -128,-70 -106,-24 -61,-172zm449 -2578c-127,-35 -670,52 -872,81 -174,25 -147,-9 -189,111 93,100 61,72 256,73l905 7c403,11 802,16 1199,34l4 1583 -2223 -115c-13,188 -77,1047 -61,1126l1009 71c327,8 260,22 335,116 -575,0 -1497,-112 -1713,-112l-24 150 2977 220c410,42 2127,172 2301,132l-330 -351 -2007 -151c-71,-182 -26,-2525 -26,-2933 0,-514 65,-2590 -20,-2918l-67 -53c50,-164 -50,-74 66,-137 -61,-55 -33,-4 -61,-125 -3,-15 -6,-128 -6,-150 0,-532 28,-243 -48,-367l-62 -203c0,-4 -3,-50 -2,-55l-75 8c-72,107 72,49 -113,127 5,-18 -211,-31 188,-37l0 3910c-312,-129 -900,105 -1341,-42z"></path>
   <path class="fil4" d="M13218 5429l1165 12 8 155 -1166 -12 -7 -155zm4 -292l1159 8 12 157 -1174 -7 3 -158zm-3 -212c42,-156 176,-82 583,-82 268,1 585,-53 589,82 4,165 -270,91 -589,88l-488 -7c-187,-48 -29,22 -95,-81zm-1 -362l1168 -10 -1 162 -1156 1 -11 -153zm4 -293l1161 -11 5 161 -1164 9 -2 -159zm5 -292l1155 -15 8 160 -926 16 -38 0 -207 -8 8 -153zm-10 -218c51,-98 -18,-37 97,-74l869 -23c216,0 195,-32 208,134 -94,73 -1043,54 -1043,54 -138,-31 -61,-10 -131,-91zm4 -201l-1 -156 1170 -32 1 161 -1170 27zm4 -449l1165 -34 -8 166 -1160 28 3 -160zm-8 -177c15,-180 2,-123 518,-135 215,-5 443,-28 656,-6l-7 156c-219,15 -1057,88 -1167,-15zm-2 -339c89,-139 438,-86 588,-91 194,-6 392,-23 586,-7l-2 152 -1040 43c-144,-33 -57,0 -132,-97zm5 -192l2 -159 1164 -53 3 163 -1169 49zm-2924 -246l13 -694 4089 -219 -23 722 -4079 191zm-179 -900c-1,5 2,51 2,55l62 203c76,124 48,-165 48,367 0,22 3,135 6,150 28,121 0,70 61,125 -116,63 -16,-27 -66,137l67 53 83 -2 2670 -105c125,80 19,-24 58,95 65,197 -60,4076 34,4534l82 241c128,72 395,118 527,-3 -223,-153 -434,35 -532,-150 86,-187 -6,-36 276,-89 103,-20 17,15 88,-36l-33 -65 -302 -28 -31 -153c163,-28 194,27 323,-66l13 -35 -330 -34 -5 -156c102,-13 121,-1 208,-4 187,-7 81,22 194,-51l-10 -31 -391 -47 3 -160 478 -10 93 -52c-113,-99 -386,-50 -556,-72l-21 -146 1165 14 10 160c-134,14 -339,-21 -443,46 235,72 436,87 488,346 33,166 -9,175 64,238 -59,-331 -21,-1005 -21,-1374 0,-464 0,-927 0,-1391 0,-918 0,-1837 0,-2755l-4362 251z"></path>
   <path class="fil5" d="M7109 6981l-604 53c-44,-3 -61,-5 -104,-15 -139,-32 -28,2 -87,-35 -73,10 -1,18 -101,-2 -7,-1 -22,-4 -27,-16 -5,-12 -16,-14 -25,-21l-107 -20 -15 105 -18 114 -23 196 -16 105c-7,74 -12,174 -24,247 -2,9 -15,73 -20,93 -25,84 -18,56 -38,91l10 121 -7 75 -266 2155 -7 124 2 176c162,35 261,20 401,-22l28 -113c25,-116 18,-184 87,-263 -11,-171 340,-1759 414,-1970 58,-285 107,-629 208,-930l0 930 17 2067 3 213c129,102 324,145 424,-51 5,-150 -5,-249 55,-352 -43,-204 91,-1422 133,-1689l24 -150 98 -1166 4 -191c-120,58 -258,114 -419,141z"></path>
   <path class="fil6" d="M4251 2383c-100,-20 -38,-10 -94,-52 26,-95 -85,-142 427,-112l1 112c-76,55 -220,75 -334,52zm-93 -240c13,-88 -99,-179 424,-137l-13 160 -318 11c-62,-9 -68,-22 -93,-34zm11 -226c80,-31 133,-37 235,-39 31,-1 77,-2 107,3 78,13 35,9 72,36 -92,66 -306,96 -414,0zm-65 -114l-3 5978 553 42 1 -6036 -551 16z"></path>
   <path class="fil7" d="M14318 7739c-376,-8 -738,-95 -847,127l-215 641 -35 -177 -198 318c103,0 184,-32 157,38 9,126 -33,222 -82,345l-125 444 1478 0 36 -217c3,-9 7,-18 10,-28l387 -1196c97,-297 -90,-254 -142,-330l-88 7c-126,72 -190,52 -336,28z"></path>
   <path class="fil8" d="M14479 1005c0,918 0,1837 0,2755 0,464 0,927 0,1391 0,369 -38,1043 21,1374 174,21 281,116 390,170 -49,-633 -8,-4119 -8,-5041 0,-1329 140,-1297 -290,-1402 -10,-245 19,-109 -113,-177 -27,196 -8,88 -2,269 3,73 2,146 2,219 0,148 0,295 0,442z"></path>
   <path class="fil0" d="M10703 3634c33,-580 375,-965 937,-1017l0 1004 -937 13zm-323 -1290c0,217 -58,1446 59,1596l77 156c4,11 7,28 15,40l99 -108c11,-9 46,-5 51,-5l24 -109 -1 -229c290,-1 689,33 960,-30 77,-272 32,-748 32,-1044 669,71 1080,614 859,1359 147,-38 106,-38 269,-60l-8 174c1,8 2,23 8,33 192,-43 74,-64 226,-94l0 -1784 -2670 105z"></path>
   <path class="fil9" d="M10705 3914c137,157 124,302 322,478 135,119 317,222 556,237 492,29 829,-292 972,-659 221,-745 -190,-1288 -859,-1359 0,296 45,772 -32,1044 -271,63 -670,29 -960,30l1 229z"></path>
   <path class="fil1" d="M12579 1692c0,-236 91,-339 321,-352 530,-30 469,643 38,667 -270,14 -359,-52 -359,-315zm1637 -75c0,502 -636,405 -696,172 -126,-487 259,-579 638,-449 41,88 58,148 58,277zm-3920 539l4079 -191 23 -722 -4089 219 -13 694z"></path>
   <path class="fil9" d="M7843 6344c182,-344 350,-24 479,69 244,-91 445,-721 937,-479 232,114 490,579 502,934l-1548 -69c-386,-1 -317,-46 -370,82 53,85 -3,35 97,70 161,56 2023,106 2092,98l-3 -1483 -2296 -49c9,152 24,281 34,425 6,68 6,164 14,227 6,44 7,58 20,100 37,118 -29,2 42,75z"></path>
   <path class="fil10" d="M8036 10907c303,21 271,-8 260,237 -5,112 -26,354 13,420l-1386 -17 -110 98c411,35 858,38 1274,52 1011,34 608,82 1028,-214 154,-107 425,-50 615,-40 293,16 254,3 421,-167l524 -478c6,-12 40,-34 6,-136 -344,-10 -1189,-105 -1465,-66 -174,25 -345,180 -511,250 -232,96 -357,-3 -577,31 -10,1 -24,6 -32,8 -8,1 -25,19 -30,10 -6,-9 -21,7 -30,12z"></path>
   <path class="fil11" d="M8651 3911c-42,93 -36,92 -95,170l-97 102c-107,268 -189,247 -522,247 -163,1 -577,50 -678,-37l-70 18c-146,150 -75,978 -74,1267 1,369 33,971 -6,1303 161,-27 299,-83 419,-141l-5 -297c-39,-251 -113,-863 -62,-1093 -26,-39 -7,18 -34,-81l-27 -338c188,-17 1036,-110 1146,-172 129,-73 418,-658 436,-872 -78,-55 -114,-77 -228,-99l-42 -1 -61 24z"></path>
   <path class="fil1" d="M7214 10388c150,56 84,38 273,64 141,19 121,-11 133,149l-830 -17 0 -145 -3 -213 -616 14 -23 -111c-69,79 -62,147 -87,263 141,58 66,40 224,58 193,21 123,-52 162,116 -34,17 16,36 -201,40l-631 -15 15 -240 7 -124 -182 119c-104,33 -467,98 -481,257 89,407 1194,411 1646,411 329,0 667,-22 976,-75 980,-170 927,-509 -294,-680l-33 -223c-60,103 -50,202 -55,352z"></path>
   <path class="fil12" d="M7461 5450c-51,230 23,842 62,1093 108,29 120,33 197,-26 25,-19 43,-47 54,-62 70,-93 17,-16 69,-111 -71,-73 -5,43 -42,-75 -13,-42 -14,-56 -20,-100 -8,-63 -8,-159 -14,-227 -10,-144 -25,-273 -34,-425l2296 49 3 1483c-69,8 -1931,-42 -2092,-98 -100,-35 -44,15 -97,-70 53,-128 -16,-83 370,-82 -212,-82 -385,-16 -627,-28l-62 260 -98 1166c216,0 1138,112 1713,112 -75,-94 -8,-108 -335,-116l-1009 -71c-16,-79 48,-938 61,-1126l2223 115 -4 -1583c-397,-18 -796,-23 -1199,-34l-905 -7c-195,-1 -163,27 -256,-73 42,-120 15,-86 189,-111 202,-29 745,-116 872,-81l0 -52 -1291 -19 -24 299z"></path>
   <path class="fil13" d="M7843 6344c-52,95 1,18 -69,111 -11,15 -29,43 -54,62 -77,59 -89,55 -197,26l5 297 -4 191 62 -260c242,12 415,-54 627,28l1548 69c-12,-355 -270,-820 -502,-934 -492,-242 -693,388 -937,479 -129,-93 -297,-413 -479,-69z"></path>
   <path class="fil1" d="M11362 11216c14,182 79,211 -1,369 -105,162 -64,233 -238,250l5 -171 -147 64c-140,87 -412,35 -520,-72 151,-143 204,12 357,-198l24 -61c-249,44 -521,114 -641,252 46,420 1080,425 1495,433 907,16 970,-72 1650,-259 -152,-280 50,-239 69,-300 4,-14 18,-11 26,-17l6 -98 -756 137 0 133c-17,192 -25,269 -218,181 -103,-94 -17,-108 10,-274l-38 -33c-142,133 -18,134 -219,186 0,0 -196,27 -197,27l-158 -34c172,-273 226,100 225,-604l-12 197 -717 11 -5 -119z"></path>
   <path class="fil9" d="M12404 10135l26 62c3,10 8,20 11,31 19,64 4,11 15,62l31 440c8,173 -22,181 81,279 50,199 109,112 108,333l-1 78 664 -187 13 -1171 -4 -1c-113,-84 -55,-45 -81,-237l-875 8c30,140 45,180 12,303z"></path>
   <path class="fil14" d="M6314 6984c59,37 -52,3 87,35 43,10 60,12 104,15l604 -53c39,-332 7,-934 6,-1303 -1,-289 -72,-1117 74,-1267 -39,-39 -13,-22 -72,-54 -51,-27 -27,-15 -88,-34 -48,-15 -95,-19 -146,-35l-200 -4 -17 2718c-196,21 -184,-19 -352,-18z"></path>
   <path class="fil1" d="M13583 10716l1 113 3563 -5c-103,-310 -322,-418 -600,-559 -1092,-152 -947,498 -1485,245 -370,-174 -440,79 -657,173 -141,61 -617,15 -822,33z"></path>
   <path class="fil5" d="M13508 7297l-232 85c-68,72 -114,181 -197,297l-260 513c-172,-72 -161,-154 -338,-180 -123,65 -127,72 -180,218l49 118 330 351c255,13 120,52 343,-51l198 -318 35 177 215 -641c109,-222 471,-135 847,-127 -43,-83 -88,-127 -136,-222 -48,-96 -74,-188 -121,-286l-553 66z"></path>
   <path class="fil1" d="M6006 3346c130,-132 111,-162 333,-244 193,-71 257,-106 455,-63l-25 -1371 -729 40c-34,505 52,1185 -34,1638z"></path>
   <path class="fil15" d="M6262 4337l17 -1 17 2582c-58,34 85,64 -135,27 9,7 20,9 25,21 5,12 20,15 27,16 100,20 28,12 101,2 168,-1 156,39 352,18l17 -2718 -421 53z"></path>
   <path class="fil9" d="M7702 3133c259,3 660,-68 888,7l5 -54 0 -838 13 -358c-614,-17 -1054,606 -1076,1226l170 17z"></path>
   <path class="fil16" d="M3161 11581c-215,52 -23,-18 -178,85 -40,27 -36,38 -80,64 -201,120 -555,113 -797,115 -296,1 -1007,-84 -599,-401l7 103c-1,8 -32,68 -36,109 254,72 283,124 629,128 151,2 600,-30 499,-193l-197 45c-169,124 -637,-94 -699,-104l33 -1332c141,9 349,27 538,27l316 -67 -138 -12 -238 5 -113 -4 -226 -13c-174,-9 -488,-4 -479,-214 -87,65 -48,195 -44,380 16,764 -81,468 167,1108 -138,38 -159,46 -244,122 19,411 485,460 901,464 341,3 951,12 978,-415z"></path>
   <path class="fil17" d="M12789 7224c20,-175 -1,-93 80,-138 49,96 21,96 -80,138zm-307 -5c-73,-59 -73,84 -59,-75 62,-56 -20,-7 93,-56l-26 131 66 -81c59,-50 -42,-11 111,-56 173,249 -2,404 -218,250 -7,-52 -97,86 33,-113zm-379 2c-75,-64 -72,91 -61,-82 35,-33 34,-36 103,-53l-25 133c101,-108 8,-87 172,-137 166,248 -4,406 -219,250 -9,-58 -98,91 30,-111zm-314 -283l58 168 4 75c5,5 13,10 16,13l85 100c69,-123 6,-125 60,67 43,151 12,79 48,64 2,-1 -33,-181 93,4 61,90 42,171 43,279 275,0 634,52 883,-29 83,-116 129,-225 197,-297 -41,-47 -29,-34 -89,-77 -33,-24 -42,-21 -84,-55l-57 114c-147,13 -136,4 -236,-50 82,-79 -100,-123 174,-7 29,-40 -13,-36 39,-50l-106 -173c157,48 111,15 181,137 195,9 41,24 116,-52l10 -60 -82 -241c-16,-38 -39,-97 -55,-138l-1265 10c-64,139 -40,34 -33,198z"></path>
   <path class="fil18" d="M5903 8072l7 -75c-304,-3 -645,-49 -944,-69l-699 -46c-164,-17 -121,2 -191,-80 -112,-121 -51,-2711 -51,-3065 0,-1035 -15,-2082 2,-3116l23 -734c595,-79 1427,-134 2044,-159 675,-27 1394,-117 2067,-161 662,-44 1414,-82 2070,-154l1576 -125c148,-15 348,4 473,-76l-308 3c-956,129 -2847,212 -3961,306 -378,32 -3754,261 -4003,328 -76,286 -59,6851 -1,6993 186,154 1529,174 1896,230z"></path>
   <path class="fil9" d="M6148 10129l23 111 616 -14 -17 -2067 -208 0c-74,211 -425,1799 -414,1970z"></path>
   <path class="fil19" d="M11067 10830c117,100 160,99 359,103 148,-215 252,-842 379,-1156l-8 -73c13,-164 26,-166 22,-278 -5,-112 -7,-214 -6,-327 -155,36 -144,52 -296,16 -247,45 -249,511 -300,782 -49,259 -150,683 -150,933z"></path>
   <path class="fil20" d="M9057 3871l-71 78 -4 38c-18,214 -307,799 -436,872 -110,62 -958,155 -1146,172l27 338c27,99 8,42 34,81l24 -299 1291 19 90 17c143,-174 292,-470 405,-731 72,-165 62,-225 162,-404 168,-297 24,-118 87,-403l-80 148c-10,-11 -18,-26 -24,-37l-57 -146 -225 324 -77 -67z"></path>
   <path class="fil21" d="M5766 4588c-37,59 -59,93 -87,173 41,50 218,527 255,623 77,195 232,510 86,701 88,202 21,577 34,840l107 20c220,37 77,7 135,-27l-17 -2582c-298,73 -328,169 -513,252z"></path>
   <path class="fil22" d="M2702 10098l-30 48c-6,11 -31,56 -34,65 -3,9 -10,21 -14,32 -3,11 -7,21 -10,33 -11,48 -10,123 -10,175l2 1140c101,163 -348,195 -499,193 -346,-4 -375,-56 -629,-128 4,-41 35,-101 36,-109l-7 -103c-408,317 303,402 599,401 242,-2 596,5 797,-115 44,-26 40,-37 80,-64 155,-103 -37,-33 178,-85l-213 -129c-8,-6 -42,-22 -47,-39 -4,-14 -16,-13 -23,-20 246,-490 144,-489 160,-1091 2,-70 51,-349 -27,-394 -12,186 -130,197 -309,190z"></path>
   <path class="fil23" d="M2409 11636l-125 27 -3 -1436c-189,0 -397,-18 -538,-27l-33 1332c62,10 530,228 699,104z"></path>
   <path class="fil1" d="M6039 7030l15 -105c-13,-263 54,-638 -34,-840 -164,-37 -327,-182 -478,-271 -38,61 72,89 -388,55 -476,-35 -312,-21 -353,72 0,0 -74,64 199,83l756 19c116,126 43,86 198,167l-1143 -32c-7,205 49,147 534,169l597 33c85,27 50,12 100,50 -80,162 -38,114 -586,87 -185,-9 -475,-42 -641,-14l-4 118 1170 77 0 167 -1165 -63c-27,207 75,154 491,179 243,15 488,15 732,49z"></path>
   <path class="fil13" d="M8459 4183l97 -102c59,-78 53,-77 95,-170 -80,-1 -42,-673 -61,-771 -228,-75 -629,-4 -888,-7 -28,242 87,515 200,661 202,260 364,224 557,389z"></path>
   <path class="fil13" d="M10703 3634l937 -13 0 -1004c-562,52 -904,437 -937,1017z"></path>
   <path class="fil9" d="M11426 10933l-64 283 5 119 717 -11 12 -197 43 13c0,-58 -13,-40 50,-42l-43 -288c-91,-120 -128,-339 -172,-550l-96 -372c-8,-11 -19,-24 -25,-33 -6,-8 -16,-22 -22,-30 -5,-7 -21,-36 -26,-48 -127,314 -231,941 -379,1156z"></path>
   <path class="fil24" d="M11885 9659c-30,87 35,27 -88,45l8 73c5,12 21,41 26,48 6,8 16,22 22,30 6,9 17,22 25,33 68,-81 -101,-82 119,-61l395 5 875 -8c26,192 -32,153 81,237l-32 -233 298 2 639 -6c111,-66 68,-44 118,-192 36,-108 8,-109 80,-157l-1478 0 -78 175 -1010 9z"></path>
   <path class="fil1" d="M13542 11760c-70,32 -87,34 -191,46 48,180 -17,48 17,147 68,199 673,208 846,212 326,7 854,5 1020,-208 -92,-235 -493,-176 -744,-263 -9,122 7,233 -160,200 -110,-22 -94,-67 -96,-178 -145,7 -282,11 -425,33 -46,8 -114,25 -153,29 -125,10 -40,32 -114,-18z"></path>
   <path class="fil25" d="M14829 7638c326,-399 300,-492 61,-943 -109,-54 -216,-149 -390,-170 -73,-63 -31,-72 -64,-238 -52,-259 -253,-274 -488,-346l-39 -9c-12,112 7,20 73,152l399 712c6,9 21,34 26,43l260 461c29,41 49,79 63,98 76,100 -7,-73 61,78 42,93 27,27 38,162z"></path>
   <path class="fil23" d="M6923 11547l1386 17c-39,-66 -18,-308 -13,-420 11,-245 43,-216 -260,-237l-1212 590c57,62 -87,52 99,50z"></path>
   <path class="fil26" d="M12675 11420l-155 49 -87 32 12 51 38 33 153 32c45,54 8,15 55,61l0 -133 756 -137 43 -4c200,-5 697,118 896,182l68 6 -11 -115 -860 -239 1 -409 -1 -113 -23 -658 -208 4 -13 1171 -664 187z"></path>
   <path class="fil5" d="M6006 3346c29,169 116,403 113,525 6,8 15,11 18,25 2,14 13,19 17,24 4,5 13,18 18,23l82 89c176,10 299,-63 387,-132l19 -140 -72 -243c106,-36 54,-8 111,-20l123 -35 -27 -233 -1 -190c-198,-43 -262,-8 -455,63 -222,82 -203,112 -333,244z"></path>
   <path class="fil22" d="M1839 5174c136,90 186,99 371,127l10 1252 -211 8c117,105 390,52 465,-74 65,-104 46,-1181 22,-1381 -162,-152 -576,-190 -657,68z"></path>
   <path class="fil13" d="M8595 3086l805 -9c-17,-470 -311,-857 -805,-829l0 838z"></path>
   <path class="fil27" d="M3124 9826c235,-66 362,-132 470,-292 159,-237 54,-122 262,-306 41,-36 46,-38 77,-78 -116,-10 -219,-8 -313,-42l-83 -47c55,-65 7,-12 0,-150 -139,25 -137,26 -237,99l-99 89 -22 -201c-116,83 -39,-34 -91,124 -58,172 140,23 -190,303 85,152 -4,47 101,135 153,128 193,-47 200,241 -86,0 -199,-20 -236,-21 -208,-7 -154,23 -215,96 176,12 82,-25 113,36l263 14z"></path>
   <path class="fil28" d="M2009 6561l211 -8 -10 -1252c-185,-28 -235,-37 -371,-127 3,255 2,511 2,767 0,125 -5,256 -4,380 3,205 -13,226 172,240z"></path>
   <path class="fil29" d="M2281 10227l3 1436 125 -27 197 -45 -2 -1140c0,-52 -1,-127 10,-175 3,-12 7,-22 10,-33 4,-11 11,-23 14,-32 3,-9 28,-54 34,-65l-75 14 -316 67z"></path>
   <path class="fil22" d="M1127 6925l1 -966 342 127 9 506 148 604 1 -179c211,-82 141,-239 140,-512 -1,-215 24,-450 -17,-658 -236,-130 -477,-126 -634,36 -38,237 -67,862 10,1042z"></path>
   <path class="fil5" d="M1242 7157c36,375 182,478 196,812 16,374 -40,576 173,835l-41 -417 -2 -36c0,-268 -36,-648 53,-873 -23,-135 -30,-160 6,-282l-148 -604c-93,-80 10,74 -75,-70 -163,195 -166,317 -162,635z"></path>
   <path class="fil30" d="M13700 5991l-56 95 146 55c-24,332 17,254 190,374 36,56 69,109 95,157l42 96c91,190 200,278 304,552l233 391 88 -7 87 -66c-11,-135 4,-69 -38,-162 -68,-151 15,22 -61,-78 -14,-19 -34,-57 -63,-98l-260 -461c-5,-9 -20,-34 -26,-43l-399 -712c-66,-132 -85,-40 -73,-152l-116 7 -93 52z"></path>
   <path class="fil1" d="M2600 6090l-2 -1643 230 81 284 31 -15 1610c233,-63 146,-310 146,-868 0,-268 29,-721 -18,-966 -134,-77 -336,-127 -520,-50 -188,77 -136,302 -135,527 1,266 -57,1113 30,1278z"></path>
   <path class="fil31" d="M5663 4774l-94 418c-19,125 -23,231 -92,334l11 227 54 61c151,89 314,234 478,271 146,-191 -9,-506 -86,-701 -37,-96 -214,-573 -255,-623l-16 13z"></path>
   <path class="fil32" d="M2740 6154c43,30 10,22 91,39 57,12 42,11 104,10 68,-1 108,-17 162,-34l15 -1610 -284 -31 35 1625 -123 1z"></path>
   <path class="fil33" d="M11517 9115c152,36 141,20 296,-16 -1,113 1,215 6,327 4,112 -9,114 -22,278 123,-18 58,42 88,-45l110 -57c113,-33 395,-14 518,-14l0 -564c-146,58 -144,51 -290,10 -145,-29 -242,-7 -390,7 -46,4 -133,9 -174,17 -147,29 -63,-11 -142,57z"></path>
   <path class="fil34" d="M12223 9034c146,41 144,48 290,-10l0 564c-123,0 -405,-19 -518,14l-110 57 1010 -9 78 -175 125 -444 -115 -97c-222,19 -600,5 -760,100z"></path>
   <path class="fil28" d="M2600 6090c66,70 27,60 140,64l123 -1 -35 -1625 -230 -81 2 1643z"></path>
   <path class="fil35" d="M2979 8890c-133,115 -385,463 -342,728 40,164 26,59 27,232 1,92 -1,171 38,248 179,7 297,-4 309,-190l113 -82 -263 -14c-31,-61 63,-24 -113,-36 61,-73 7,-103 215,-96 37,1 150,21 236,21 -7,-288 -47,-113 -200,-241 -105,-88 -16,17 -101,-135 330,-280 132,-131 190,-303 52,-158 -25,-41 91,-124l-6 -102 -194 94z"></path>
   <path class="fil20" d="M6887 3338c32,123 105,317 86,445 -13,90 -44,136 -91,199 -88,114 -62,38 -111,168 45,45 67,62 112,138 51,16 98,20 146,35 61,19 37,7 88,34 59,32 33,15 72,54l70 -18 -63 -97c158,-164 121,-292 52,-536 122,-57 178,21 225,-151 -171,-94 -96,-31 -173,-33 -115,-3 -48,41 -128,-6 -90,-53 -38,-134 -32,-252l-191 -4 -62 24z"></path>
   <path class="fil4" d="M12947 1694c101,59 15,-92 164,73 -188,204 -505,-150 -237,-263 64,137 -7,143 73,190zm-368 -2c0,263 89,329 359,315 431,-24 492,-697 -38,-667 -230,13 -321,116 -321,352z"></path>
   <path class="fil22" d="M338 6718c104,33 304,112 385,163 1,197 25,413 -29,600 263,-14 313,-34 314,-296 1,-189 7,-410 -19,-576 -201,-78 -561,-156 -651,109z"></path>
   <path class="fil36" d="M13690 1471l349 -16 -1 199 -214 90c-97,7 81,60 -66,-11l-77 -79 9 -183zm526 146c0,-129 -17,-189 -58,-277 -379,-130 -764,-38 -638,449 60,233 696,330 696,-172z"></path>
   <path class="fil13" d="M16081 3834l-373 99c51,220 49,489 0,710l499 -169 -1 -664 -125 24z"></path>
   <path class="fil37" d="M2176 8287c-33,363 -167,0 -18,664 5,-4 41,-44 52,-48 91,-28 -29,-38 51,8 -127,247 -30,348 94,432 -63,32 -78,13 -100,131 -49,270 31,174 64,201 111,-274 193,-378 156,-759 -27,-272 -117,-489 -248,-697 -68,20 -127,-85 -51,68z"></path>
   <path class="fil38" d="M14033 7118l28 113c47,98 73,190 121,286 48,95 93,139 136,222 146,24 210,44 336,-28l-233 -391c-104,-274 -213,-362 -304,-552l-42 -96c-26,-48 -59,-101 -95,-157 -22,161 -57,97 -19,315 14,78 51,208 72,288z"></path>
   <path class="fil39" d="M13610 6208l10 31 -67 245 -13 35 10 247 33 65c120,95 130,74 181,202l38 115 231 -30c-21,-80 -58,-210 -72,-288 -38,-218 -3,-154 19,-315 -173,-120 -214,-42 -190,-374l-146 -55c28,179 5,86 -34,122z"></path>
   <path class="fil9" d="M15534 3910l-286 -45 -4 573 450 140 1 -555 -161 -113z"></path>
   <path class="fil1" d="M8349 10265c147,250 1040,200 1147,0 -208,-183 -955,-174 -1147,0z"></path>
   <path class="fil23" d="M694 7481c54,-187 30,-403 29,-600 -81,-51 -281,-130 -385,-163 -1,141 -18,456 0,578 32,206 170,171 356,185z"></path>
   <path class="fil28" d="M1127 6925c34,62 77,162 115,232 -4,-318 -1,-440 162,-635 85,144 -18,-10 75,70l-9 -506 -342 -127 -1 966z"></path>
   <path class="fil15" d="M11974 10260c44,211 81,430 172,550 191,15 216,-4 341,-80l-31 -440c-11,-51 4,2 -15,-62 -3,-11 -8,-21 -11,-31l-26 -62c-102,90 -265,121 -430,125z"></path>
   <path class="fil4" d="M8651 3911l61 -24 -33 -380 125 123 65 -53 151 -269c51,72 28,113 52,166 71,-125 1,-52 119,-124l60 -223 -661 13c19,98 -19,770 61,771z"></path>
   <path class="fil40" d="M1403 9922c-9,210 305,205 479,214l-11 -189 237 -2 0 204 113 4 26 -209 277 13 37 13 27 -150 -71 -26c-446,17 -719,-24 -1114,128z"></path>
   <path class="fil14" d="M1611 8804c29,58 121,222 236,264l305 66c-100,-463 -173,-326 -381,-370 -66,-13 -74,-23 -102,-38l339 0 -83 -227c-125,-27 6,19 -87,-31 -24,-12 -1,-16 -66,-48 -81,-41 -101,-29 -202,-33l41 417z"></path>
   <path class="fil41" d="M2949 8412c-4,1 -146,-17 -98,174 62,14 418,59 442,58 158,-63 345,-226 373,-384 -113,-50 -238,-74 -384,-49 -155,26 -184,96 -252,183 0,80 12,50 -81,18z"></path>
   <path class="fil42" d="M0 7903l244 393 -208 -1c7,127 -13,70 47,132 13,-106 -42,-19 32,-78 107,6 170,11 244,57 37,24 48,34 77,70 67,84 31,44 66,111 -189,19 -167,7 -220,74 397,-28 265,-19 525,137 -100,71 -143,-15 -230,126 214,-61 292,-22 476,-19 -4,-8 -10,-19 -13,-23 -129,-162 -122,-28 -183,-180 -39,-98 -56,-303 60,-321l-162 -60 32 386c-57,-39 -87,-61 -119,-91 -31,-29 -25,-25 -53,-55 -84,-85 -174,-194 -59,-311 -22,-57 49,-29 -90,-58l-12 218c-2,-2 -44,-57 -60,-75 -55,-63 -15,12 -54,-57 -83,-148 16,-166 16,-166l-163 -143c-71,-60 -93,-72 -162,-147l-31 81z"></path>
   <path class="fil22" d="M12407 7931l74 81c177,26 166,108 338,180l260 -513c-249,81 -608,29 -883,29 50,33 181,188 211,223z"></path>
   <path class="fil1" d="M6282 4175l26 0 -54 -143 -82 -89c-5,-5 -14,-18 -18,-23 -4,-5 -15,-10 -17,-24 -3,-14 -12,-17 -18,-25 48,169 15,35 -25,92l-1018 9c-189,-1 -227,-44 -275,89 44,65 -52,72 314,66 138,-2 277,-4 415,-4 169,-1 636,-59 752,52z"></path>
   <path class="fil13" d="M16476 2900l-281 54c48,152 44,195 43,356 -1,141 36,267 -95,254 143,-18 410,-80 480,-218l-5 -474c-122,-1 -31,-18 -142,28z"></path>
   <path class="fil4" d="M13542 11760c74,50 -11,28 114,18 39,-4 107,-21 153,-29 143,-22 280,-26 425,-33 39,-32 101,-80 152,-130 -199,-64 -696,-187 -896,-182 10,147 65,214 52,356z"></path>
   <path class="fil43" d="M10842 11397l-24 61 128 42 35 228 147 -64c93,-66 100,-65 233,-79 80,-158 15,-187 1,-369l-348 -48c-105,60 -82,108 -172,229z"></path>
   <path class="fil1" d="M13217 2933c110,103 948,30 1167,15l7 -156c-213,-22 -441,1 -656,6 -516,12 -503,-45 -518,135z"></path>
   <path class="fil44" d="M1568 8351l164 6c7,-5 17,-29 20,-21 1,2 27,-30 37,-38l40 -23c2,0 8,-1 12,-3l52 -416c-28,-100 21,3 -63,-93 -19,-22 -46,-45 -75,-80 -72,-86 -80,-119 -134,-205 -89,225 -53,605 -53,873z"></path>
   <path class="fil45" d="M3203 7661c78,345 40,321 134,373 3,2 13,8 19,12l-99 97 477 49c65,-111 87,-128 92,-260 -194,-105 -322,17 -463,67 108,-227 152,-227 51,-488l-211 150z"></path>
   <path class="fil1" d="M13802 4843c-407,0 -541,-74 -583,82 66,103 -92,33 95,81l488 7c319,3 593,77 589,-88 -4,-135 -321,-81 -589,-82z"></path>
   <path class="fil46" d="M12181 8109l226 -178c-30,-35 -161,-190 -211,-223 -1,-108 18,-189 -43,-279 -126,-185 -91,-5 -93,-4 -36,15 -5,87 -48,-64 -54,-192 9,-190 -60,-67 -59,112 -97,312 -16,438 74,115 172,216 245,377z"></path>
   <path class="fil1" d="M13793 5939l116 -7 39 9c104,-67 309,-32 443,-46l-10 -160 -1165 -14 21 146c170,22 443,-27 556,72z"></path>
   <path class="fil1" d="M13314 3686c-115,37 -46,-24 -97,74 70,81 -7,60 131,91 0,0 949,19 1043,-54 -13,-166 8,-134 -208,-134l-869 23z"></path>
   <path class="fil47" d="M11974 10260c165,-4 328,-35 430,-125 33,-123 18,-163 -12,-303l-395 -5c-220,-21 -51,-20 -119,61l96 372z"></path>
   <path class="fil1" d="M13215 2594c75,97 -12,64 132,97l1040 -43 2 -152c-194,-16 -392,1 -586,7 -150,5 -499,-48 -588,91z"></path>
   <path class="fil1" d="M13222 3270l1160 -28 8 -166 -1165 34 -3 160z"></path>
   <path class="fil1" d="M5900 7876c20,-35 13,-7 38,-91 5,-20 18,-84 20,-93 12,-73 17,-173 24,-247 -174,89 -410,33 -613,22 -99,-6 -193,-15 -292,-24 -301,-28 -245,2 -275,77 77,123 373,88 507,96 210,13 411,31 620,39l-29 221z"></path>
   <path class="fil1" d="M14389 2353l-3 -163 -1164 53 -2 159 1169 -49z"></path>
   <path class="fil1" d="M13464 4139l926 -16 -8 -160 -1155 15 -8 153 207 8 38 0z"></path>
   <path class="fil1" d="M5998 7340l23 -196c-367,119 -840,-92 -1210,-8 -4,212 240,148 474,160 238,12 475,36 713,44z"></path>
   <path class="fil36" d="M15810 3367l384 148 -3 -519c-125,-18 -254,-87 -379,-68l-2 439z"></path>
   <path class="fil1" d="M13224 4429l1164 -9 -5 -161 -1161 11 2 159z"></path>
   <path class="fil48" d="M6660 3760l37 187c9,115 11,125 47,203l27 0c49,-130 23,-54 111,-168 47,-63 78,-109 91,-199 19,-128 -54,-322 -86,-445 -21,-39 -5,-21 -27,-46 -35,-39 -29,-31 -65,-63l27 233 -123 35c-57,12 -5,-16 -111,20l72 243z"></path>
   <path class="fil1" d="M14391 3532l-1 -161 -1170 32 1 156 1170 -27z"></path>
   <path class="fil1" d="M13219 5295l1174 7 -12 -157 -1159 -8 -3 158z"></path>
   <path class="fil1" d="M13229 4716l1156 -1 1 -162 -1168 10 11 153z"></path>
   <path class="fil1" d="M4802 3121c79,115 215,60 540,51 163,-5 469,35 583,-51 -12,-184 34,-128 -545,-108 -422,14 -531,-44 -578,108z"></path>
   <path class="fil1" d="M13225 5584l1166 12 -8 -155 -1165 -12 7 155z"></path>
   <path class="fil49" d="M12445 11552l-12 -51c-28,-71 -14,-27 -31,-62 -133,-262 -222,-152 -153,-292l-110 -7 -43 -13c1,704 -53,331 -225,604l158 34c1,0 197,-27 197,-27 201,-52 77,-53 219,-186z"></path>
   <path class="fil50" d="M13224 7109l-10 60c197,78 123,126 294,128l553 -66 -28 -113 -231 30 -38 -115c-51,-128 -61,-107 -181,-202 -71,51 15,16 -88,36 -282,53 -190,-98 -276,89 98,185 309,-3 532,150 -132,121 -399,75 -527,3z"></path>
   <path class="fil16" d="M15534 3910l161 113 -1 555 -450 -140 4 -573 286 45zm174 733c49,-221 51,-490 0,-710l-174 -23c-6,-6 -17,-13 -22,-17l-71 -45c-8,-5 -19,-10 -27,-14 -7,-4 -20,-12 -27,-15l-55 -32c272,-75 528,-189 749,47l125 -24c-88,-84 -348,-180 -490,-184 -87,-3 -444,123 -524,171l-8 694 524 152z"></path>
   <path class="fil15" d="M577 8924c-49,85 145,62 -48,62 -29,35 44,59 -49,20 42,147 218,227 382,284l39 -43c98,-92 191,-136 325,-161 -51,-16 -1,-1 -32,-57 -97,-15 -26,24 -99,-42 -92,-85 -4,55 -42,-82 -184,-3 -262,-42 -476,19z"></path>
   <path class="fil1" d="M4810 2531c167,49 393,9 573,4 100,-3 201,-6 301,-10 162,-6 204,30 243,-81 -35,-133 -43,-96 -243,-85 -126,8 -253,16 -380,23 -418,20 -502,-33 -494,149z"></path>
   <path class="fil1" d="M4808 3473c174,59 883,12 1110,-2l6 -141c-208,-15 -447,4 -657,9 -227,5 -461,-69 -459,134z"></path>
   <path class="fil51" d="M1053 8905c38,137 -50,-3 42,82 73,66 2,27 99,42l178 85c45,-70 76,-131 92,-234 -49,-232 -149,-297 -333,-379 -59,167 -69,175 -78,404z"></path>
   <path class="fil52" d="M3416 8741l159 21c0,34 3,51 -5,85 -2,4 -5,16 -7,21 -1,3 -6,13 -7,16l-19 27c7,138 55,85 0,150l83 47c94,34 197,32 313,42 112,-29 126,-26 154,-160 -253,-28 -330,-57 -437,-187 223,-56 335,-136 401,-379 -92,90 -114,159 -255,219 -102,43 -306,30 -380,98z"></path>
   <path class="fil1" d="M4802 2782c20,48 -32,95 235,87l875 -43 14 -140 -853 18c-325,2 -236,17 -271,78z"></path>
   <path class="fil1" d="M4800 1842c21,45 -27,92 238,78l886 -60 -2 -131 -997 36c-112,26 -77,-9 -125,77z"></path>
   <path class="fil53" d="M4087 8990c160,-175 141,-623 -36,-566 -66,243 -178,323 -401,379 107,130 184,159 437,187z"></path>
   <path class="fil1" d="M4813 2090l-4 134 1101 -34 16 -149 -1113 49z"></path>
   <path class="fil42" d="M1925 8499l83 227 -339 0c28,15 36,25 102,38 208,44 281,-93 381,370l-305 -66 109 153c16,-34 -54,-124 142,-45 84,34 110,239 108,301 -11,237 -5,99 -66,155l81 120c146,-46 60,-13 98,-77 -33,-27 -113,69 -64,-201 22,-118 37,-99 100,-131 -124,-84 -221,-185 -94,-432 -80,-46 40,-36 -51,-8 -11,4 -47,44 -52,48 -149,-664 -15,-301 18,-664 -47,60 17,-43 -56,75l-97 244c-7,-9 -31,-43 -42,-55l-56 -52z"></path>
   <path class="fil54" d="M12189 11098c-63,2 -50,-16 -50,42l110 7c-69,140 20,30 153,292 17,35 3,-9 31,62l87 -32 156 -127c1,-221 -58,-134 -108,-333 -135,11 -90,8 -193,45l-186 44z"></path>
   <path class="fil16" d="M15812 2928c125,-19 254,50 379,68l3 519 -384 -148 2 -439zm331 636c131,13 94,-113 95,-254 1,-161 5,-204 -43,-356l-273 -96c67,-33 187,-83 287,-82 271,3 262,116 267,124 111,-46 20,-29 142,-28 -221,-218 -590,-139 -839,-33 -40,134 -37,398 -5,568l369 157z"></path>
   <path class="fil1" d="M5663 4774l16 -13c28,-80 50,-114 87,-173l-951 22 -3 128 851 36z"></path>
   <path class="fil55" d="M923 9321c196,76 387,117 628,72l-40 -385 -67 47c-2,179 13,140 82,277 -174,-111 -122,-180 -282,-191 -117,-8 -222,64 -321,100l0 80z"></path>
   <path class="fil13" d="M16893 3769l-140 36c-1,1 10,131 -41,54 -5,-7 -13,22 -21,33l2 300 31 43 309 -133 2 -366c-100,-6 -61,-17 -142,33z"></path>
   <path class="fil37" d="M2795 8046c11,6 38,26 45,28 84,33 -44,0 77,23 126,33 52,48 123,199 45,-46 162,-170 177,-256 10,-56 -9,-125 -28,-176 -66,-181 -9,-101 -97,-102 -176,59 -187,123 -297,284z"></path>
   <path class="fil15" d="M1925 8499l56 52c11,12 35,46 42,55l97 -244c73,-118 9,-15 56,-75 -76,-153 -17,-48 51,-68 -110,-163 -81,-155 -236,-273l-61 18c-69,297 -22,269 -5,535z"></path>
   <path class="fil1" d="M5477 5526c69,-103 73,-209 92,-334 -254,118 -524,-15 -761,60 0,192 135,137 647,144l22 130z"></path>
   <path class="fil41" d="M226 8722c64,162 113,213 254,284 93,39 20,15 49,-20 193,0 -1,23 48,-62 87,-141 130,-55 230,-126 -260,-156 -128,-165 -525,-137 -20,40 18,32 -56,61z"></path>
   <path class="fil28" d="M16724 4235l-31 -43 -299 -120 -1 -287c117,11 221,72 298,107 8,-11 16,-40 21,-33 51,77 40,-53 41,-54l-270 -72c117,-99 363,-137 410,36 81,-50 42,-39 142,-33 -37,-46 -7,-28 -64,-65 -50,-33 -8,-9 -79,-38 -155,-63 -210,-67 -362,-11l-186 106c-1,394 -58,371 202,494 115,55 108,80 178,13z"></path>
   <path class="fil36" d="M15534 3910l174 23 373 -99c-221,-236 -477,-122 -749,-47l55 32c7,3 20,11 27,15 8,4 19,9 27,14l71 45c5,4 16,11 22,17z"></path>
   <path class="fil56" d="M6562 8159l208 0 0 -930c-101,301 -150,645 -208,930z"></path>
   <path class="fil25" d="M6790 10439l0 145 830 17c-12,-160 8,-130 -133,-149 -189,-26 -123,-8 -273,-64 -100,196 -295,153 -424,51z"></path>
   <path class="fil15" d="M2683 8311c9,142 53,212 168,275 -48,-191 94,-173 98,-174 38,-182 25,-159 -32,-315 -121,-23 7,10 -77,-23 -7,-2 -34,-22 -45,-28 -103,55 -113,143 -112,265z"></path>
   <path class="fil39" d="M11014 11168l348 48 64 -283c-199,-4 -242,-3 -359,-103l-53 338z"></path>
   <path class="fil1" d="M5488 5753l-11 -227c-193,84 -459,-10 -662,38l-3 115c217,61 444,-16 676,74z"></path>
   <path class="fil46" d="M8712 3887l42 1 40 -81c167,9 159,3 192,142l71 -78 39 -139c-43,-154 -46,-165 -227,-155l-65 53 -125 -123 33 380z"></path>
   <path class="fil30" d="M1944 4399c0,223 259,192 357,160 90,-29 115,36 102,-223 -83,-4 -178,-10 -258,-9 -247,3 -163,51 -201,72z"></path>
   <path class="fil30" d="M440 6053c49,102 -11,33 90,81 13,6 124,38 129,39l166 -44c9,-3 20,-7 29,-11 8,-3 21,-10 27,-13 7,-3 19,-8 27,-14l-11 -171 -434 -3 -23 136z"></path>
   <path class="fil57" d="M10981 11728l-35 -228 -128 -42c-153,210 -206,55 -357,198 108,107 380,159 520,72z"></path>
   <path class="fil42" d="M3092 7762c88,1 31,-79 97,102 19,51 38,120 28,176 -15,86 -132,210 -177,256 -71,-151 3,-166 -123,-199 57,156 70,133 32,315 93,32 81,62 81,-18 68,-87 97,-157 252,-183 146,-25 271,-1 384,49l68 -68 -477 -49 99 -97c-6,-4 -16,-10 -19,-12 -94,-52 -56,-28 -134,-373 -97,48 -54,3 -111,101z"></path>
   <path class="fil58" d="M1053 8905c9,-229 19,-237 78,-404l-214 -120c-116,18 -99,223 -60,321 61,152 54,18 183,180 3,4 9,15 13,23z"></path>
   <path class="fil59" d="M6061 10392l-28 113c-140,42 -239,57 -401,22l-2 -176 -15 240 631 15c217,-4 167,-23 201,-40 -39,-168 31,-95 -162,-116 -158,-18 -83,0 -224,-58z"></path>
   <path class="fil37" d="M83 8427c21,153 67,198 143,295 74,-29 36,-21 56,-61 53,-67 31,-55 220,-74 -35,-67 1,-27 -66,-111 -29,-36 -40,-46 -77,-70 -74,-46 -137,-51 -244,-57 -74,59 -19,-28 -32,78z"></path>
   <path class="fil36" d="M16693 4192l-2 -300c-77,-35 -181,-96 -298,-107l1 287 299 120z"></path>
   <path class="fil39" d="M12146 10810l43 288 186 -44c103,-37 58,-34 193,-45 -103,-98 -73,-106 -81,-279 -125,76 -150,95 -341,80z"></path>
   <path class="fil33" d="M2734 8892l164 -27c24,-17 37,-32 96,-56 33,-13 73,-18 113,-34 86,-36 78,-54 176,-92l10 -39c-24,1 -380,-44 -442,-58l-117 306z"></path>
   <path class="fil60" d="M3599 7327c30,147 -3,173 9,308 122,-16 44,-3 141,-52 108,-55 39,-38 171,-38l0 -88 -207 45 131 -416c-58,-70 65,-73 -68,-56 -46,134 -105,179 -177,297z"></path>
   <path class="fil13" d="M13681 1654l77 79c147,71 -31,18 66,11l214 -90 1 -199 -349 16 -9 183z"></path>
   <path class="fil61" d="M2700 3805c147,-7 176,31 208,32 39,3 4,-4 76,-21 63,-14 66,-14 134,-17l0 -189 -418 0 0 195z"></path>
   <path class="fil49" d="M6308 4175l-26 0c-59,73 -18,-7 -60,111l40 51 421 -53 200 4c-45,-76 -67,-93 -112,-138l-27 0 -436 25z"></path>
   <path class="fil62" d="M13610 6208c39,-36 62,57 34,-122l56 -95 -478 10 -3 160 391 47z"></path>
   <path class="fil63" d="M6254 4032l54 143 436 -25c-36,-78 -38,-88 -47,-203l-37 -187 -19 140c-88,69 -211,142 -387,132z"></path>
   <path class="fil61" d="M1244 5347c158,-4 153,32 197,34 69,4 -25,6 80,-22 56,-15 52,-16 117,-21l10 -186 -418 0 14 195z"></path>
   <path class="fil34" d="M3179 8898l22 201 99 -89c100,-73 98,-74 237,-99l19 -27c1,-3 6,-13 7,-16 2,-5 5,-17 7,-21 8,-34 5,-51 5,-85l-159 -21 -89 -19c-48,50 -146,173 -148,176z"></path>
   <path class="fil58" d="M3608 7635c-5,66 2,78 -31,149 -24,52 -28,43 -55,64l350 -19 48 -284c-132,0 -63,-17 -171,38 -97,49 -19,36 -141,52z"></path>
   <path class="fil58" d="M755 8321l-199 -71c-115,117 -25,226 59,311 28,30 22,26 53,55 32,30 62,52 119,91l-32 -386z"></path>
   <path class="fil0" d="M9516 7832c-115,235 38,371 242,241 41,-210 -59,-312 -242,-241z"></path>
   <path class="fil64" d="M8869 3577c181,-10 184,1 227,155 39,-33 18,27 85,-87 34,-58 27,-54 33,-106 3,-27 -5,-143 -23,-189 -118,72 -48,-1 -119,124 -24,-53 -1,-94 -52,-166l-151 269z"></path>
   <path class="fil42" d="M3826 7932c52,-29 32,60 46,-103l-350 19c27,-21 31,-12 55,-64 33,-71 26,-83 31,-149l-56 23c-4,-10 -20,15 -16,22l-72 -207c-64,0 -54,-18 -50,38 101,261 57,261 -51,488 141,-50 269,-172 463,-67z"></path>
   <path class="fil4" d="M11955 6166c37,154 341,129 266,-104 -50,-155 -326,-143 -266,104z"></path>
   <path class="fil17" d="M4158 2143c25,12 31,25 93,34l318 -11 13 -160c-523,-42 -411,49 -424,137z"></path>
   <path class="fil55" d="M2140 9632c61,-56 55,82 66,-155 2,-62 -24,-267 -108,-301 -196,-79 -126,11 -142,45l184 411z"></path>
   <path class="fil17" d="M4157 2331c56,42 -6,32 94,52 114,23 258,3 334,-52l-1 -112c-512,-30 -401,17 -427,112z"></path>
   <path class="fil36" d="M11836 6229c40,-83 41,-160 13,-266l-226 15c-57,235 -28,297 213,251z"></path>
   <path class="fil4" d="M12193 6588c29,-30 106,-250 -116,-248 -201,3 -19,-4 -99,35 -88,249 116,313 215,213z"></path>
   <path class="fil36" d="M11506 7069c-123,-38 -256,-79 -250,110 4,175 126,154 269,123l-19 -233z"></path>
   <path class="fil62" d="M13553 6484l67 -245c-113,73 -7,44 -194,51 -87,3 -106,-9 -208,4l5 156 330 34z"></path>
   <path class="fil65" d="M13348 10061l4 1 208 -4c70,-42 25,57 60,-94 8,-37 -3,-97 -6,-134l-298 -2 32 233z"></path>
   <path class="fil66" d="M12490 7219l-8 0c-130,199 -40,61 -33,113 216,154 391,-1 218,-250 -153,45 -52,6 -111,56l-66 81z"></path>
   <path class="fil36" d="M11277 5967c-45,238 -13,305 246,245l-15 -246 -231 1z"></path>
   <path class="fil66" d="M12120 7219l-17 2c-128,202 -39,53 -30,111 215,156 385,-2 219,-250 -164,50 -71,29 -172,137z"></path>
   <path class="fil36" d="M10936 6935l249 -10 -16 -245 -249 -7 16 262z"></path>
   <path class="fil36" d="M11854 6335l-247 13 15 244 249 3 -17 -260z"></path>
   <path class="fil2" d="M16195 2954l281 -54c-5,-8 4,-121 -267,-124 -100,-1 -220,49 -287,82l273 96z"></path>
   <path class="fil67" d="M12919 6417c-190,-144 -277,-29 -234,190 177,75 290,30 234,-190z"></path>
   <path class="fil67" d="M12914 5669c-33,-22 -17,-35 -91,-42 -116,-11 -36,-10 -137,23 -78,381 329,324 228,19z"></path>
   <path class="fil67" d="M12682 6022c-62,374 320,331 236,21 -91,-67 -157,-49 -236,-21z"></path>
   <path class="fil67" d="M12340 5622c-51,133 -35,135 -11,249l231 8 10 -239 -230 -18z"></path>
   <path class="fil9" d="M11297 6332c-55,147 -50,90 -5,251l209 -11c53,-225 25,-278 -204,-240z"></path>
   <path class="fil4" d="M10604 7261c196,54 344,-4 190,-244l-202 10 12 234z"></path>
   <path class="fil67" d="M12565 6010c-221,-64 -292,13 -230,242l232 -13 -2 -229z"></path>
   <path class="fil4" d="M10955 7294l204 -11c39,-149 46,-112 -15,-245l-193 2c-49,152 -51,93 4,254z"></path>
   <path class="fil4" d="M11851 7181l-4 -75c-118,-76 -73,-59 -215,-28 -29,99 -30,30 -22,140 12,158 6,37 37,109l208 -4 -4 -142z"></path>
   <path class="fil67" d="M12338 6622l216 -13c55,-230 22,-276 -227,-243l11 256z"></path>
   <path class="fil36" d="M10604 6546c202,47 274,24 224,-237l-238 2 14 235z"></path>
   <path class="fil4" d="M10925 6089c-5,63 7,54 21,123l217 -14c45,-218 14,-288 -194,-237l-44 128z"></path>
   <path class="fil9" d="M11520 6807c4,-170 -12,-53 -30,-96 -120,-48 -57,-40 -203,-14 -25,97 -31,40 -18,145 10,78 21,57 45,107l166 -15c6,-10 14,-22 17,-30l23 -97z"></path>
   <path class="fil4" d="M10620 7384c-52,144 -51,91 -1,249l204 -11c52,-212 12,-273 -203,-238z"></path>
   <path class="fil62" d="M13550 6766l-10 -247c-129,93 -160,38 -323,66l31 153 302 28z"></path>
   <path class="fil9" d="M11143 6556c56,-109 46,-120 7,-219 -119,-46 -60,-38 -202,-13 -58,230 16,235 24,249l171 -17z"></path>
   <path class="fil9" d="M10621 6189c139,32 82,33 192,-7 76,-195 9,-267 -193,-227 -49,144 -48,89 1,234z"></path>
   <path class="fil9" d="M10630 6673c-62,116 -48,104 -10,243l197 -12c62,-216 13,-285 -187,-231z"></path>
   <path class="fil68" d="M1568 8351l2 36c101,4 121,-8 202,33 65,32 42,36 66,48 93,50 -38,4 87,31 -17,-266 -64,-238 5,-535l61 -18c-36,-61 -7,-41 -98,-90l-52 416c-4,2 -10,3 -12,3l-40 23c-10,8 -36,40 -37,38 -3,-8 -13,16 -20,21l-164 -6z"></path>
   <path class="fil69" d="M13480 11656c-44,84 24,130 -119,38 86,-82 -71,-7 43,-59 128,-59 31,-1 76,21zm-134 167l5 -17c104,-12 121,-14 191,-46 13,-142 -42,-209 -52,-356l-43 4 -6 98c-8,6 -22,3 -26,17 -19,61 -221,20 -69,300z"></path>
   <path class="fil70" d="M12626 11734c-38,122 -12,103 -102,78l-8 -92c95,-25 31,-30 110,14zm65 -56c-47,-46 -10,-7 -55,-61l-153 -32c-27,166 -113,180 -10,274 193,88 201,11 218,-181z"></path>
   <path class="fil71" d="M13111 1767c-149,-165 -63,-14 -164,-73 -80,-47 -9,-53 -73,-190 -268,113 49,467 237,263z"></path>
   <path class="fil34" d="M2221 10153l238 -5 65 -191 -277 -13 -26 209z"></path>
   <path class="fil72" d="M1194 9029c31,56 -19,41 32,57 -134,25 -227,69 -325,161l-39 43 61 31 0 -80c99,-36 204,-108 321,-100 160,11 108,80 282,191 -69,-137 -84,-98 -82,-277l67 -47 -47 -128c-16,103 -47,164 -92,234l-178 -85z"></path>
   <path class="fil68" d="M2561 9970c19,-17 55,-23 72,-46 7,226 41,146 -74,200l2 -154zm-44 -176l71 26 -27 150 -37 -13 -65 191 138 12 75 -14 30 -48c-39,-77 -37,-156 -38,-248 -1,-173 13,-68 -27,-232 -21,31 -11,-4 -43,82 -7,19 -12,62 -15,84l-62 10z"></path>
   <path class="fil73" d="M14428 11737c-38,116 -13,95 -97,73 -4,-8 -82,-20 -11,-89 60,-57 68,-7 108,16zm-194 -21c2,111 -14,156 96,178 167,33 151,-78 160,-200l-57 -23 21 -79 -68 -6c-51,50 -113,98 -152,130z"></path>
   <path class="fil34" d="M1882 10136l226 13 0 -204 -237 2 11 189z"></path>
   <path class="fil68" d="M2693 8697c4,-50 -3,-66 -1,-90l23 -119c144,353 -34,270 -44,271 13,65 1,30 27,89 3,6 15,29 17,23 2,-5 13,14 19,21l117 -306c-115,-63 -159,-133 -168,-275 -34,53 -25,-17 -42,110 0,2 -2,112 -2,116 5,77 -5,143 54,160z"></path>
   <path class="fil58" d="M36 8295l208 1 -244 -393 36 392z"></path>
   <path class="fil36" d="M16753 3805l140 -36c-47,-173 -293,-135 -410,-36l270 72z"></path>
   <path class="fil51" d="M3920 7457l-76 -371 -131 416 207 -45z"></path>
   <path class="fil8" d="M13103 7250l-5 -29c-70,-122 -24,-89 -181,-137l106 173c-52,14 -10,10 -39,50 -274,-116 -92,-72 -174,7 100,54 89,63 236,50l57 -114z"></path>
   <path class="fil46" d="M13098 7221l5 29c42,34 51,31 84,55 60,43 48,30 89,77l232 -85c-171,-2 -97,-50 -294,-128 -75,76 79,61 -116,52z"></path>
   <path class="fil71" d="M9223 2025c12,108 -6,130 111,140 126,12 133,-23 146,-135 -65,-29 -186,-42 -257,-5z"></path>
   <path class="fil9" d="M11789 6938c-7,-164 -31,-59 33,-198l-174 -23 -12 224c128,44 76,54 153,-3z"></path>
   <path class="fil74" d="M11128 11664l-5 171c174,-17 133,-88 238,-250 -133,14 -140,13 -233,79z"></path>
   <path class="fil75" d="M12181 8109l120 121c53,-146 57,-153 180,-218l-74 -81 -226 178z"></path>
   <path class="fil58" d="M3464 7473l72 207c-4,-7 12,-32 16,-22l56 -23c-12,-135 21,-161 -9,-308l-135 146z"></path>
   <path class="fil76" d="M2898 8865l81 25 194 -94 6 102c2,-3 100,-126 148,-176l-44 -39c-98,38 -90,56 -176,92 -40,16 -80,21 -113,34 -59,24 -72,39 -96,56z"></path>
   <path class="fil17" d="M4169 1917c108,96 322,66 414,0 -37,-27 6,-23 -72,-36 -30,-5 -76,-4 -107,-3 -102,2 -155,8 -235,39z"></path>
   <path class="fil70" d="M12983 8934l115 97c49,-123 91,-219 82,-345 -70,97 -145,151 -197,248z"></path>
   <path class="fil58" d="M466 8192c-34,-41 -44,-43 -110,-80 0,0 -99,18 -16,166 39,69 -1,-6 54,57 16,18 58,73 60,75l12 -218z"></path>
   <path class="fil77" d="M1244 5347l-14 -195 418 0 -10 186c36,-44 70,0 35,-203l-456 -20c-47,241 -5,189 27,232z"></path>
   <path class="fil78" d="M2495 2280l200 0c-25,-128 -13,-100 -98,-181 -91,82 -77,50 -102,181z"></path>
   <path class="fil77" d="M2700 3805l0 -195 418 0 0 189c54,-85 47,-80 24,-208l-457 -18c-19,104 -45,121 15,232z"></path>
   <path class="fil32" d="M9328 8021c76,-134 33,-136 -76,-171 -1,2 -85,-15 -46,117 27,90 65,53 122,54z"></path>
   <path class="fil54" d="M8754 3888c114,22 150,44 228,99l4 -38c-33,-139 -25,-133 -192,-142l-40 81z"></path>
   <path class="fil54" d="M15044 1869l191 1 -67 -183c-54,39 -29,-14 -89,80 -31,49 -19,42 -35,102z"></path>
   <path class="fil79" d="M8388 7972c130,-95 100,-180 -61,-172 -45,148 -67,102 61,172z"></path>
   <path class="fil32" d="M8693 7973c76,-123 66,-135 -64,-164 -94,87 -88,187 64,164z"></path>
   <path class="fil15" d="M15271 2450l206 7 -82 -180c-48,35 -41,13 -76,65 -48,72 -27,49 -48,108z"></path>
   <path class="fil80" d="M3119 1729l168 96 11 -200c-83,11 -37,-13 -101,26 -81,49 -56,50 -78,78z"></path>
   <path class="fil41" d="M3226 2841c43,-34 41,-16 75,-67 53,-78 23,-41 47,-107l-212 6 90 168z"></path>
   <path class="fil15" d="M16050 1612c38,-13 40,-3 85,-32 136,-88 24,-6 81,-76l-150 -100 -16 208z"></path>
   <path class="fil8" d="M8912 7860l-17 113 134 37c24,-129 6,-201 -117,-150z"></path>
   <path class="fil47" d="M2693 8697l-22 62c10,-1 188,82 44,-271l-23 119c-2,24 5,40 1,90z"></path>
   <path class="fil49" d="M4477 1279c165,-34 135,-75 38,-149 -88,60 -100,12 -38,149z"></path>
   <path class="fil27" d="M4289 1304c88,-97 95,-62 0,-159 -110,65 -118,101 0,159z"></path>
   <path class="fil81" d="M4740 1116c-41,53 -36,-7 -45,84 -12,134 10,36 45,75 2,-8 174,-36 0,-159z"></path>
   <path class="fil27" d="M2561 9970l-2 154c115,-54 81,26 74,-200 -17,23 -53,29 -72,46z"></path>
   <path class="fil82" d="M14331 11810c84,22 59,43 97,-73 -40,-23 -48,-73 -108,-16 -71,69 7,81 11,89z"></path>
   <path class="fil82" d="M12516 11720l8 92c90,25 64,44 102,-78 -79,-44 -15,-39 -110,-14z"></path>
   <path class="fil83" d="M12103 7221l17 -2 25 -133c-69,17 -68,20 -103,53 -11,173 -14,18 61,82z"></path>
   <path class="fil84" d="M13361 11694c143,92 75,46 119,-38 -45,-22 52,-80 -76,-21 -114,52 43,-23 -43,59z"></path>
   <path class="fil83" d="M12789 7224c101,-42 129,-42 80,-138 -81,45 -60,-37 -80,138z"></path>
   <path class="fil44" d="M12482 7219l8 0 26 -131c-113,49 -31,0 -93,56 -14,159 -14,16 59,75z"></path>
   <path class="fil85" d="M12520 11469l155 -49 1 -78 -156 127z"></path>
  </g>
 </g>
</svg>