<svg width="531" height="501" viewBox="0 0 531 501" fill="none" xmlns="http://www.w3.org/2000/svg">
<path d="M46.7163 284.14C48.8725 285.099 54.1432 283.661 54.1432 283.661C58.2161 282.942 58.2161 279.588 58.2161 278.151L49.5913 246.766C48.3934 240.058 45.5184 234.068 41.4456 231.912C35.9353 229.037 28.2687 232.87 29.9458 241.495C29.9458 241.256 40.4873 281.744 46.7163 284.14Z" fill="#32333D"/>
<path d="M98.9479 275.276C103.26 271.922 103.5 269.766 102.302 270.245C94.875 272.162 91.5209 269.047 91.5209 269.047C94.875 268.808 96.7917 267.131 97.2708 266.172C97.75 265.454 96.5521 264.016 95.3542 264.974C93.9167 265.933 91.7605 266.172 90.5626 266.172C86.969 265.933 85.5315 266.651 84.5732 267.37C81.9378 269.047 79.542 269.287 79.542 269.287C79.3024 269.287 79.0628 269.287 78.8232 269.287L79.7816 276.474C82.1774 276.474 84.094 276.474 87.2085 277.193C93.4376 278.151 98.2292 275.755 98.9479 275.276Z" fill="#F28F8F"/>
<path d="M46.7175 283.182C43.8426 279.109 46.7175 273.359 51.2695 271.443L81.6961 266.651C81.6961 266.651 81.2169 270.485 81.9356 272.162C83.3731 276.234 86.0085 276.953 86.0085 276.953C86.0085 276.953 52.9466 292.286 46.7175 283.182Z" fill="#137697"/>
<path d="M137.997 276.714V278.63L114.278 264.974V263.297L137.997 276.714Z" fill="#778489"/>
<path d="M114.278 263.297V264.974L86.0078 281.505V279.828L114.278 263.297Z" fill="#ABBEC5"/>
<path d="M96.3096 287.734V289.411C96.3096 289.172 96.07 288.932 95.8304 288.693H95.5908V287.016C95.5908 287.016 95.8304 287.016 95.8304 287.255C96.07 287.255 96.3096 287.495 96.3096 287.734Z" fill="#738085"/>
<path d="M95.5931 287.016V288.693H95.3535L95.5931 287.016C95.3535 287.016 95.3535 287.016 95.5931 287.016Z" fill="#78858A"/>
<path d="M95.3529 287.016V288.693C95.3529 288.693 95.3529 288.693 95.1133 288.693L95.3529 287.016C95.1133 286.776 95.3529 286.776 95.3529 287.016Z" fill="#7C8A8F"/>
<path d="M95.1107 286.776V288.453C95.1107 288.453 95.1107 288.453 94.8711 288.453L95.1107 286.776Z" fill="#818F94"/>
<path d="M94.8733 286.776V288.453C94.8733 288.453 94.8734 288.453 94.6338 288.453L94.8733 286.776Z" fill="#859499"/>
<path d="M94.8733 286.776V288.453C94.8733 288.453 94.8734 288.453 94.6338 288.453L94.8733 286.776C94.6338 286.776 94.6338 286.776 94.8733 286.776Z" fill="#8A999E"/>
<path d="M94.6322 286.776V288.453C94.6322 288.453 94.6322 288.453 94.3926 288.453L94.6322 286.776Z" fill="#8E9DA3"/>
<path d="M94.3939 286.776V288.453H94.1543L94.3939 286.776Z" fill="#93A2A8"/>
<path d="M94.1556 286.776V288.453H93.916L94.1556 286.776Z" fill="#97A7AD"/>
<path d="M94.1556 286.776V288.453H93.916V286.776C93.916 287.016 93.916 286.776 94.1556 286.776Z" fill="#9BACB3"/>
<path d="M93.6715 287.016V288.693C93.432 288.693 93.432 288.693 93.1924 288.932V287.255C93.432 287.016 93.6715 287.016 93.6715 287.016Z" fill="#A0B1B8"/>
<path d="M93.432 287.016V288.693C93.432 288.693 93.1924 288.693 93.1924 288.932L93.432 287.016C93.1924 287.255 93.1924 287.255 93.432 287.016Z" fill="#9BACB3"/>
<path d="M93.1963 287.255V288.932V287.255C92.9567 287.255 92.9567 287.255 93.1963 287.255Z" fill="#97A7AD"/>
<path d="M96.3106 288.213V289.89V288.213C96.071 288.213 96.3106 288.213 96.3106 288.213Z" fill="#3F7992"/>
<path d="M96.0726 288.213V289.89C96.0726 289.89 95.833 289.89 95.833 290.13L96.0726 288.213C95.833 288.453 96.0726 288.453 96.0726 288.213Z" fill="#43809B"/>
<path d="M95.8327 288.453V290.13C95.8327 290.13 95.5931 290.37 95.3535 290.37V288.692C95.5931 288.692 95.5931 288.453 95.8327 288.453Z" fill="#44849F"/>
<path d="M95.3529 288.693V290.37H95.1133V288.693H95.3529Z" fill="#43809B"/>
<path d="M95.1107 288.693V290.37H94.8711L95.1107 288.693C94.8711 288.693 95.1107 288.693 95.1107 288.693Z" fill="#417C96"/>
<path d="M94.8733 288.693V290.37H94.6338L94.8733 288.693Z" fill="#3F7992"/>
<path d="M94.6322 288.693V290.37C94.6322 290.37 94.6322 290.37 94.3926 290.37L94.6322 288.693Z" fill="#3D758D"/>
<path d="M94.3939 288.693V290.37C94.3939 290.37 94.3939 290.37 94.1543 290.37L94.3939 288.693Z" fill="#3B7189"/>
<path d="M94.3939 288.693V290.37C94.3939 290.37 94.3939 290.37 94.1543 290.37L94.3939 288.693C94.1543 288.693 94.3939 288.693 94.3939 288.693Z" fill="#396E85"/>
<path d="M94.1556 288.693V290.37C94.1556 290.37 94.1556 290.37 93.916 290.37L94.1556 288.693Z" fill="#376A80"/>
<path d="M93.9124 288.693V290.37H93.6729L93.9124 288.693Z" fill="#35667C"/>
<path d="M93.9124 288.693V290.37H93.6729L93.9124 288.693C93.6729 288.693 93.6729 288.693 93.9124 288.693Z" fill="#336377"/>
<path d="M93.6748 288.692V290.37H93.4352C93.1956 290.13 92.9561 289.89 92.9561 289.651V287.974C92.9561 288.213 93.1956 288.453 93.4352 288.692C93.4352 288.453 93.4352 288.692 93.6748 288.692Z" fill="#315F73"/>
<path d="M109.487 293.484L109.726 295.162L86.0078 281.506V279.828L109.487 293.484Z" fill="#336277"/>
<path d="M95.8304 287.015C96.5491 287.495 96.5491 287.974 95.8304 288.453C95.1116 288.932 94.1533 288.932 93.4346 288.453C92.7158 287.974 92.7158 287.495 93.4346 287.015C93.9137 286.776 95.1116 286.776 95.8304 287.015Z" fill="#8979CC"/>
<path d="M137.998 276.714V278.63L109.728 295.161L109.488 293.484L137.998 276.714Z" fill="#498DAB"/>
<path d="M137.996 276.714L109.487 293.484L86.0078 279.828L114.278 263.297L137.996 276.714Z" fill="#163584"/>
<path d="M131.288 276.474L110.205 288.932L92.7158 278.87L113.559 266.412L131.288 276.474Z" fill="#EAEAEA"/>
<path d="M117.872 272.401L111.883 275.755L106.852 272.88L112.841 269.526L117.872 272.401Z" fill="#3B3B5F"/>
<path d="M141.108 276.953C141.108 277.193 141.108 277.193 141.108 276.953C140.868 277.193 140.868 277.193 140.868 277.193C140.868 277.193 140.868 277.193 140.629 277.193L107.327 296.838V298.515L140.629 278.87C140.629 278.87 140.629 278.87 140.868 278.87L141.108 276.953C141.108 276.714 141.108 276.714 141.108 276.953C141.108 276.714 141.108 276.953 141.108 276.953Z" fill="#CCCECC"/>
<path d="M140.632 275.995C141.351 276.474 141.351 276.953 140.632 277.432L107.331 297.078C106.612 297.557 105.654 297.557 104.935 297.078L80.0185 282.943C79.2998 282.463 79.2998 281.984 80.0185 281.505L113.32 261.86C114.039 261.38 114.997 261.38 115.716 261.86L140.632 275.995ZM109.487 293.484L137.757 276.953L114.039 263.297L85.7685 279.828L109.487 293.484ZM93.435 288.453C94.1537 288.932 95.112 288.932 95.8308 288.453C96.5495 287.974 96.5495 287.495 95.8308 287.015C95.112 286.536 94.1537 286.536 93.435 287.015C92.7163 287.495 92.7163 288.213 93.435 288.453Z" fill="#EAEAEA"/>
<path d="M107.33 297.078C107.33 297.078 107.09 297.078 107.09 297.318C107.09 297.318 107.09 297.318 106.851 297.318C106.851 297.318 106.851 297.318 106.611 297.318H106.372H106.132H105.892H105.653H105.413H105.174L80.2575 283.182C80.0179 282.943 79.7783 282.703 79.7783 282.464C79.7783 282.943 79.7783 283.662 79.7783 284.141C79.7783 284.38 80.0179 284.62 80.2575 284.859L105.174 298.995H105.413C105.413 298.995 105.413 298.995 105.653 298.995C105.653 298.995 105.653 298.995 105.892 298.995C105.892 298.995 105.892 298.995 106.132 298.995H106.372C106.372 298.995 106.372 298.995 106.611 298.995C106.611 298.995 106.611 298.995 106.851 298.995C106.851 298.995 107.09 298.995 107.09 298.755L107.33 297.078Z" fill="#C484EE"/>
<path d="M126.496 277.672L125.778 278.151L117.632 273.599L118.59 273.12L126.496 277.672Z" fill="#3B3B5F"/>
<path d="M124.1 279.109L123.141 279.588L115.235 275.036L116.194 274.557L124.1 279.109Z" fill="#3B3B5F"/>
<path d="M121.944 280.547L120.986 281.026L113.08 276.474L113.799 275.995L121.944 280.547Z" fill="#3B3B5F"/>
<path d="M95.8304 287.255C96.5491 287.734 96.5491 288.213 95.8304 288.692C95.1116 289.172 94.1533 289.172 93.4346 288.692C92.7158 288.213 92.7158 287.734 93.4346 287.255C93.9137 286.776 95.1116 286.776 95.8304 287.255Z" fill="#3672C9"/>
<path d="M90.0822 447.773C110.686 459.752 110.926 479.158 90.3218 491.137C69.718 503.116 36.177 503.116 15.5732 491.137C-5.03063 479.158 -5.27022 459.752 15.3336 447.773C35.6978 435.794 69.2389 435.794 90.0822 447.773Z" fill="#EBEDED"/>
<path d="M37.134 314.807C37.134 314.807 24.4363 325.109 31.3841 348.827C38.3319 372.545 40.2485 371.587 38.0923 379.014C36.4153 384.524 30.6654 396.024 31.3841 406.086C31.8632 413.992 33.0611 418.544 34.9778 431.242C37.134 447.294 36.6548 443.94 34.4986 450.648C32.1028 458.315 45.7589 465.023 50.3109 464.304C54.6233 463.585 45.0401 460.231 45.7588 446.815C46.4776 433.398 53.9045 394.586 57.4982 386.201C61.0919 377.816 67.5606 333.733 66.6022 320.077C66.3627 320.077 52.7066 325.588 37.134 314.807Z" fill="#F28F8F"/>
<path d="M37.6142 456.877L35.6976 470.533L34.7393 472.45L35.9372 456.877H37.6142Z" fill="#12191C"/>
<path d="M35.4577 447.773C37.3743 447.773 38.8118 450.169 41.9263 456.398C43.1242 458.794 46.9575 465.262 50.5511 463.106C51.0303 462.867 49.8324 461.19 49.8324 461.19C49.8324 461.19 55.3428 459.992 55.8219 461.669C56.3011 463.346 52.2282 470.773 46.4783 470.054C40.7284 469.335 39.7701 463.106 38.5722 460.71C36.1764 455.919 36.6556 465.742 33.3015 456.158C31.6244 451.127 35.4577 447.773 35.4577 447.773Z" fill="#1E292E"/>
<path d="M46.7176 470.054C47.9155 470.294 49.1134 470.054 50.3113 469.335C49.1134 470.054 45.5197 467.658 43.3634 463.346C40.9677 459.033 36.1761 456.877 36.1761 456.877L35.2178 457.836C35.9365 460.231 35.9365 456.158 38.8115 460.71C40.0094 462.867 40.9677 469.335 46.7176 470.054Z" fill="#12191C"/>
<path d="M33.541 454.002L34.9785 473.887L38.093 472.45L38.5722 451.846L33.541 454.002Z" fill="#1E292E"/>
<path d="M34.979 473.887L32.8228 472.45C32.8228 472.45 31.625 454.96 33.5416 450.888C35.2186 447.533 35.6978 447.773 35.6978 447.773L34.979 473.887Z" fill="#12191C"/>
<path d="M49.8318 322.712C49.8318 322.712 39.0507 336.608 47.1964 360.087C55.3421 383.565 57.2587 382.368 55.3421 390.034C54.1442 395.784 48.8734 407.523 49.8318 417.346C50.7901 425.252 52.2276 429.565 54.6233 442.262C57.7379 458.314 57.0191 454.96 55.1025 461.668C53.1859 469.335 67.0815 475.324 71.3939 474.605C75.7063 473.647 65.8836 470.772 65.8836 457.356C65.8836 443.939 71.1543 404.888 74.5084 396.024C77.8625 387.399 78.5812 334.452 76.9042 321.035C77.3833 321.275 65.8836 332.775 49.8318 322.712Z" fill="#FFA8A7"/>
<path d="M58.6979 467.898L57.5 481.793L56.7812 483.71L57.0208 467.898H58.6979Z" fill="#12191C"/>
<path d="M56.0631 459.033C57.9797 459.033 59.6568 461.429 63.0109 467.179C64.4484 469.575 68.5212 475.804 71.8753 473.408C72.3545 473.168 70.917 471.491 70.917 471.491C70.917 471.491 76.4273 470.054 77.146 471.731C77.8648 473.408 74.0315 481.074 68.2816 480.595C62.5317 480.116 61.0942 473.887 59.8963 471.731C57.261 467.179 58.2193 476.762 54.386 467.658C52.4694 462.627 56.0631 459.033 56.0631 459.033Z" fill="#1E292E"/>
<path d="M68.282 480.595C69.4799 480.595 70.6778 480.356 71.8757 479.877C70.6778 480.595 67.0841 478.439 64.6883 474.127C62.2925 469.814 57.0218 467.898 57.0218 467.898L56.0635 469.096C57.0218 471.252 56.7822 467.179 59.8968 471.731C61.5738 473.887 62.7717 480.116 68.282 480.595Z" fill="#12191C"/>
<path d="M54.3848 465.262L57.0202 485.147L60.1346 483.47L59.4159 462.866L54.3848 465.262Z" fill="#1E292E"/>
<path d="M57.0201 485.147L54.8639 483.71C54.8639 483.71 52.7077 466.221 54.3847 462.148C55.8222 458.794 56.3014 458.794 56.3014 458.794L57.0201 485.147Z" fill="#12191C"/>
<path d="M32.343 308.338C32.343 308.338 61.0924 330.379 78.1025 312.171C78.1025 312.171 83.3733 340.681 81.9358 373.983C80.7379 401.774 78.1025 406.805 78.1025 406.805C78.1025 406.805 42.6448 413.274 28.9888 394.826C28.9888 394.826 35.9367 380.212 31.8638 367.993C27.791 355.775 17.0099 332.775 32.343 308.338Z" fill="#152B2C"/>
<path d="M78.1013 407.045C78.1013 407.045 80.9763 402.014 81.9346 374.222C83.1325 340.921 78.1013 312.411 78.1013 312.411C61.0912 330.379 32.3417 308.578 32.3417 308.578C30.9043 309.776 29.7064 314.088 28.748 315.526C31.1438 320.557 41.6853 321.755 48.1539 323.911C58.935 327.505 69.9556 343.317 68.7577 360.566C67.7994 372.785 64.9245 396.264 63.2474 408.482C71.6327 408.243 78.1013 407.045 78.1013 407.045Z" fill="#0B1919"/>
<path d="M65.8856 241.495C65.8856 241.495 83.3748 249.401 81.9374 258.985C80.2603 271.203 70.9167 294.203 77.8645 312.171C77.8645 312.171 71.3959 321.754 60.3752 321.275C47.1984 320.556 31.8653 308.338 31.8653 308.338C31.8653 308.338 37.8548 295.401 27.3133 271.443C22.7613 261.38 17.4906 231.912 31.8653 230.235C32.3445 230.235 36.1778 225.683 65.8856 241.495Z" fill="#3C3D49"/>
<path d="M66.3626 230.235L64.9251 243.891C64.9251 243.891 53.4253 250.12 45.04 240.297L46.4775 226.641C46.4775 226.641 56.7794 231.193 66.3626 230.235Z" fill="#FFA8A7"/>
<path d="M59.1752 190.705C59.1752 190.705 69.4771 190.705 73.3104 198.371C77.1437 206.038 80.4978 217.298 75.7062 223.767C70.4355 230.714 73.3104 234.787 75.7062 236.943C78.102 239.1 48.8733 249.162 36.1756 230.475C36.4152 230.475 28.03 183.757 59.1752 190.705Z" fill="#231202"/>
<path d="M78.1049 312.172C70.9176 293.964 80.2612 271.204 82.1778 258.985C83.1361 252.277 74.2717 246.287 69.2405 243.412C63.251 246.287 55.1054 251.558 56.7824 258.266C59.1782 268.568 67.8031 302.828 65.1677 319.359C65.1677 320.078 64.9281 320.557 64.9281 321.036C73.3134 319.359 78.1049 312.172 78.1049 312.172Z" fill="#32333D"/>
<path d="M83.3726 304.265C85.5288 305.223 90.7995 303.786 90.7995 303.786C94.8723 303.067 94.8723 299.713 94.8723 298.276L86.2475 266.891C85.0496 260.183 82.1746 254.193 78.1018 251.797C72.5915 248.922 64.925 252.756 66.602 261.38C66.602 261.38 77.1435 301.869 83.3726 304.265Z" fill="#3C3D49"/>
<path d="M134.642 289.411C137.517 284.62 137.038 282.703 135.84 283.422C129.611 287.734 125.538 286.057 125.538 286.057C128.653 284.859 129.611 282.463 129.851 281.266C130.09 280.307 128.413 279.589 127.455 280.786C126.497 282.224 124.58 283.182 123.382 283.422C120.028 284.62 119.07 285.578 118.351 286.536C116.434 289.172 114.518 290.13 114.518 290.13C114.278 290.13 114.038 290.37 113.799 290.37L117.393 296.838C119.549 295.88 121.465 295.401 124.58 294.922C130.33 294.203 134.163 290.37 134.642 289.411Z" fill="#F28F8F"/>
<path d="M83.3728 303.067C80.4979 298.995 83.3728 293.245 87.9248 291.328L118.351 286.536C118.351 286.536 117.872 290.13 118.591 292.047C120.028 296.12 122.664 296.838 122.664 296.838C122.664 296.838 89.6019 312.411 83.3728 303.067Z" fill="#3C3D49"/>
<g opacity="0.5">
<path opacity="0.15" d="M522.837 174.752L223.801 2.07444C219.362 -0.501911 215.731 1.5778 215.731 6.73051V250.18C215.731 255.333 219.331 261.572 223.801 264.149L522.837 436.826C527.306 439.403 530.906 437.323 530.906 432.17V188.72C530.906 183.599 527.275 177.329 522.837 174.752Z" fill="url(#paint0_linear)"/>
<path opacity="0.3" d="M490.405 190.969L191.369 18.2914C186.931 15.715 183.299 17.7947 183.299 22.9474V266.397C183.299 271.55 186.9 277.789 191.369 280.366L490.405 453.043C494.874 455.62 498.475 453.54 498.475 448.387V204.937C498.475 199.816 494.843 193.546 490.405 190.969Z" fill="url(#paint1_linear)"/>
</g>
<rect opacity="0.2" width="113.599" height="151.829" rx="8" transform="matrix(0.866025 0.5 -2.20305e-08 1 103 56)" fill="#4D6AB3"/>
<rect opacity="0.23" width="86.2914" height="78.6453" rx="8" transform="matrix(0.866025 0.5 -2.20305e-08 1 115.298 80.5764)" fill="url(#paint2_linear)"/>
<path fill-rule="evenodd" clip-rule="evenodd" d="M157.472 124.723C160.65 130.229 160.65 136.179 157.472 138.014C154.293 139.85 149.14 136.874 145.961 131.369C142.783 125.863 142.783 119.913 145.961 118.078C149.14 116.242 154.293 119.218 157.472 124.723" fill="white"/>
<path fill-rule="evenodd" clip-rule="evenodd" d="M133.112 148.185L133.112 150.87C133.112 152.353 134.154 154.157 135.438 154.898L167.994 173.695C169.278 174.436 170.32 173.834 170.32 172.352L170.32 169.667C170.32 161.542 161.13 150.956 151.716 145.521C142.303 140.087 133.112 140.06 133.112 148.185Z" fill="white"/>
<rect width="54.6148" height="6.55378" rx="3.27689" transform="matrix(0.866025 0.5 -2.20305e-08 1 118.136 177.245)" fill="white"/>
<rect width="33.8612" height="6.55378" rx="3.27689" transform="matrix(0.866025 0.5 -2.20305e-08 1 118.136 191.445)" fill="white"/>
<rect opacity="0.2" width="113.599" height="151.829" rx="8" transform="matrix(0.866025 0.5 -2.20305e-08 1 211.872 117.651)" fill="#4D6AB3"/>
<path fill-rule="evenodd" clip-rule="evenodd" d="M266.344 186.375C269.522 191.88 269.522 197.831 266.344 199.666C263.165 201.501 258.012 198.526 254.833 193.02C251.655 187.515 251.655 181.564 254.833 179.729C258.012 177.894 263.165 180.869 266.344 186.375" fill="white"/>
<path fill-rule="evenodd" clip-rule="evenodd" d="M241.984 209.837L241.984 212.522C241.984 214.004 243.026 215.808 244.31 216.55L276.867 235.346C278.15 236.087 279.192 235.486 279.192 234.004L279.192 231.318C279.192 223.193 270.002 212.608 260.588 207.173C251.175 201.738 241.984 201.711 241.984 209.837Z" fill="white"/>
<rect width="54.6148" height="6.55378" rx="3.27689" transform="matrix(0.866025 0.5 -2.20305e-08 1 227.009 238.896)" fill="white"/>
<rect width="33.8612" height="6.55378" rx="3.27689" transform="matrix(0.866025 0.5 -2.20305e-08 1 227.009 253.096)" fill="white"/>
<g opacity="0.35" filter="url(#filter0_f)">
<rect width="117.781" height="157.419" rx="8" transform="matrix(0.866025 0.5 -2.20305e-08 1 199.881 126.479)" fill="#4D6AB3"/>
</g>
<rect width="130.114" height="173.903" rx="8" transform="matrix(0.866025 0.5 -2.20305e-08 1 180 119.12)" fill="#37848F"/>
<rect opacity="0.3" width="98.8368" height="90.0791" rx="8" transform="matrix(0.866025 0.5 -2.20305e-08 1 194.084 147.269)" fill="url(#paint3_linear)"/>
<path fill-rule="evenodd" clip-rule="evenodd" d="M241.393 197.834C245.034 204.14 245.034 210.956 241.393 213.058C237.752 215.16 231.85 211.752 228.209 205.446C224.568 199.14 224.568 192.325 228.209 190.223C231.85 188.121 237.752 191.529 241.393 197.834" fill="white"/>
<path fill-rule="evenodd" clip-rule="evenodd" d="M213.492 224.707L213.492 227.783C213.492 229.481 214.685 231.548 216.156 232.396L253.446 253.926C254.916 254.775 256.109 254.086 256.109 252.388L256.109 249.312C256.109 240.005 245.583 227.881 234.801 221.656C224.019 215.431 213.492 215.401 213.492 224.707Z" fill="white"/>
<rect width="62.5549" height="7.50659" rx="3.7533" transform="matrix(0.866025 0.5 -2.20305e-08 1 197.336 257.992)" fill="white"/>
<rect width="38.784" height="7.50659" rx="3.7533" transform="matrix(0.866025 0.5 -2.20305e-08 1 197.336 274.256)" fill="white"/>
<rect opacity="0.2" width="113.599" height="151.829" rx="8" transform="matrix(0.866025 0.5 -2.20305e-08 1 320.746 181.926)" fill="#4D6AB3"/>
<rect opacity="0.23" width="86.2914" height="78.6453" rx="8" transform="matrix(0.866025 0.5 -2.20305e-08 1 333.043 206.502)" fill="url(#paint4_linear)"/>
<path fill-rule="evenodd" clip-rule="evenodd" d="M375.219 250.649C378.397 256.154 378.397 262.105 375.219 263.94C372.04 265.775 366.887 262.8 363.708 257.295C360.53 251.789 360.53 245.839 363.708 244.003C366.887 242.168 372.04 245.144 375.219 250.649" fill="white"/>
<path fill-rule="evenodd" clip-rule="evenodd" d="M350.859 274.111L350.859 276.796C350.859 278.279 351.901 280.083 353.185 280.824L385.742 299.621C387.025 300.362 388.067 299.76 388.067 298.278L388.067 295.593C388.067 287.467 378.877 276.882 369.463 271.447C360.05 266.012 350.859 265.986 350.859 274.111Z" fill="white"/>
<rect width="54.6148" height="6.55378" rx="3.27689" transform="matrix(0.866025 0.5 -2.20305e-08 1 335.883 303.17)" fill="white"/>
<rect width="33.8612" height="6.55378" rx="3.27689" transform="matrix(0.866025 0.5 -2.20305e-08 1 335.883 317.37)" fill="white"/>
<rect opacity="0.2" width="113.599" height="151.829" rx="8" transform="matrix(0.866025 0.5 -2.20305e-08 1 429.621 246.2)" fill="#4D6AB3"/>
<rect opacity="0.23" width="86.2914" height="78.6453" rx="8" transform="matrix(0.866025 0.5 -2.20305e-08 1 441.916 270.777)" fill="url(#paint5_linear)"/>
<path fill-rule="evenodd" clip-rule="evenodd" d="M484.092 314.923C487.27 320.429 487.27 326.38 484.092 328.215C480.913 330.05 475.76 327.074 472.581 321.569C469.403 316.064 469.403 310.113 472.581 308.278C475.76 306.443 480.913 309.418 484.092 314.923" fill="white"/>
<path fill-rule="evenodd" clip-rule="evenodd" d="M459.732 338.385L459.732 341.071C459.732 342.553 460.774 344.357 462.058 345.099L494.615 363.895C495.898 364.636 496.94 364.035 496.94 362.553L496.94 359.867C496.94 351.742 487.75 341.157 478.336 335.722C468.923 330.287 459.732 330.26 459.732 338.385Z" fill="white"/>
<rect width="54.6148" height="6.55378" rx="3.27689" transform="matrix(0.866025 0.5 -2.20305e-08 1 444.754 367.445)" fill="white"/>
<rect width="33.8612" height="6.55378" rx="3.27689" transform="matrix(0.866025 0.5 -2.20305e-08 1 444.754 381.645)" fill="white"/>
<g opacity="0.3" filter="url(#filter1_d)">
<path d="M268.879 142.721L268.879 80.5735" stroke="#5D8EF9" stroke-width="0.527944" stroke-linecap="round" stroke-linejoin="round" stroke-dasharray="2.11 3.17"/>
</g>
<rect width="59.3994" height="59.3994" rx="8" transform="matrix(0.866025 0.5 -2.20305e-08 1 242.711 3.90686)" fill="#43967C"/>
<path d="M275.964 45.8367L267.189 50.9031L262.803 43.3042" stroke="white" stroke-width="3" stroke-linecap="round" stroke-linejoin="round"/>
<path d="M277.635 52.9112C277.635 59.5774 272.956 62.2788 267.183 58.9458C261.41 55.6127 256.73 47.5083 256.73 40.8421C256.73 34.176 261.41 31.4745 267.183 34.8076C268.87 35.7819 270.459 37.1725 271.87 38.8065" stroke="white" stroke-width="3" stroke-linecap="round" stroke-linejoin="round"/>
<defs>
<filter id="filter0_f" x="175.881" y="105.532" width="150.002" height="258.202" filterUnits="userSpaceOnUse" color-interpolation-filters="sRGB">
<feFlood flood-opacity="0" result="BackgroundImageFix"/>
<feBlend mode="normal" in="SourceGraphic" in2="BackgroundImageFix" result="shape"/>
<feGaussianBlur stdDeviation="12" result="effect1_foregroundBlur"/>
</filter>
<filter id="filter1_d" x="264.128" y="80.0455" width="9.503" height="71.6505" filterUnits="userSpaceOnUse" color-interpolation-filters="sRGB">
<feFlood flood-opacity="0" result="BackgroundImageFix"/>
<feColorMatrix in="SourceAlpha" type="matrix" values="0 0 0 0 0 0 0 0 0 0 0 0 0 0 0 0 0 0 127 0"/>
<feOffset dy="4.22355"/>
<feGaussianBlur stdDeviation="2.11178"/>
<feColorMatrix type="matrix" values="0 0 0 0 0 0 0 0 0 0 0 0 0 0 0 0 0 0 0.25 0"/>
<feBlend mode="normal" in2="BackgroundImageFix" result="effect1_dropShadow"/>
<feBlend mode="normal" in="SourceGraphic" in2="effect1_dropShadow" result="shape"/>
</filter>
<linearGradient id="paint0_linear" x1="564.531" y1="-338.997" x2="482.077" y2="467.618" gradientUnits="userSpaceOnUse">
<stop stop-color="#4D6AB3"/>
<stop offset="1" stop-color="#4D6AB3" stop-opacity="0"/>
</linearGradient>
<linearGradient id="paint1_linear" x1="532.099" y1="-322.78" x2="449.646" y2="483.835" gradientUnits="userSpaceOnUse">
<stop stop-color="#4D6AB3"/>
<stop offset="1" stop-color="#4D6AB3" stop-opacity="0"/>
</linearGradient>
<linearGradient id="paint2_linear" x1="-3.82303" y1="-10.3768" x2="43.1457" y2="78.6453" gradientUnits="userSpaceOnUse">
<stop stop-color="white"/>
<stop offset="1" stop-color="white" stop-opacity="0"/>
</linearGradient>
<linearGradient id="paint3_linear" x1="-4.37884" y1="-11.8854" x2="49.4184" y2="90.0791" gradientUnits="userSpaceOnUse">
<stop stop-color="white"/>
<stop offset="1" stop-color="white" stop-opacity="0"/>
</linearGradient>
<linearGradient id="paint4_linear" x1="-3.82303" y1="-10.3768" x2="43.1457" y2="78.6453" gradientUnits="userSpaceOnUse">
<stop stop-color="white"/>
<stop offset="1" stop-color="white" stop-opacity="0"/>
</linearGradient>
<linearGradient id="paint5_linear" x1="-3.82303" y1="-10.3768" x2="43.1457" y2="78.6453" gradientUnits="userSpaceOnUse">
<stop stop-color="white"/>
<stop offset="1" stop-color="white" stop-opacity="0"/>
</linearGradient>
</defs>
</svg>
