<svg xmlns="http://www.w3.org/2000/svg" width="600" height="585" viewBox="0 0 600 585" fill="none"><rect x="-2.98023e-08" y="0.5" width="230.997" height="230.997" rx="19.5" transform="matrix(0.866025 0.5 -0.866025 0.5 398.933 213.354)" fill="white" stroke="url(#paint0_linear)"></rect><path d="M397.374 296.409L446.092 268.262L397.635 240.311L348.917 268.458L397.374 296.409Z" fill="url(#paint1_linear)"></path><path d="M397.376 296.409L446.094 268.262V284.393L397.376 312.474V312.539H397.31V312.474L348.919 284.523V268.393L397.376 296.409Z" fill="url(#paint2_linear)"></path><path d="M397.375 294.908L443.48 268.263L397.636 241.815L351.53 268.394L397.375 294.908Z" fill="#A7B2DF"></path><path d="M397.378 278.842L438.324 255.201V268.785L397.378 292.36V292.425V292.36L356.692 268.915V255.332L397.378 278.842Z" fill="url(#paint3_linear)"></path><path d="M397.374 269.699L446.092 241.552L397.635 213.602L348.917 241.748L397.374 269.699Z" fill="url(#paint4_linear)"></path><path d="M397.376 269.699L446.094 241.552V257.682L397.376 285.829H397.31L348.919 257.878V241.748L397.376 269.699Z" fill="url(#paint5_linear)"></path><path d="M397.375 268.198L443.48 241.553L397.636 215.104L351.53 241.749L397.375 268.198Z" fill="url(#paint6_linear)"></path><path d="M397.378 252.197L438.324 228.557V242.075L397.378 265.716L356.692 242.206V228.687L397.378 252.197Z" fill="url(#paint7_linear)"></path><path d="M397.374 242.989L446.092 214.842L397.635 186.892L348.917 215.038L397.374 242.989Z" fill="url(#paint8_linear)"></path><path d="M397.376 242.988L446.094 214.842V230.972L397.376 259.119H397.31L348.919 231.168V215.038L397.376 242.988Z" fill="url(#paint9_linear)"></path><path d="M397.375 241.488L443.48 214.843L397.636 188.395L351.53 215.039L397.375 241.488Z" fill="url(#paint10_linear)"></path><rect width="1.02289" height="8.18314" transform="matrix(-0.866025 0.5 2.20305e-08 1 443.023 220.649)" fill="#6E759B"></rect><rect width="1.02289" height="8.18314" transform="matrix(-0.866025 0.5 2.20305e-08 1 440.363 222.182)" fill="#6E759B"></rect><rect width="1.02289" height="8.18314" transform="matrix(-0.866025 0.5 2.20305e-08 1 437.705 223.717)" fill="#6E759B"></rect><rect width="1.02289" height="8.18314" transform="matrix(-0.866025 0.5 2.20305e-08 1 435.051 225.251)" fill="#6E759B"></rect><rect width="1.02289" height="8.18314" transform="matrix(-0.866025 0.5 2.20305e-08 1 432.395 226.785)" fill="#6E759B"></rect><rect width="1.02289" height="8.18314" transform="matrix(-0.866025 0.5 2.20305e-08 1 429.732 228.319)" fill="#6E759B"></rect><rect width="1.02289" height="8.18314" transform="matrix(-0.866025 0.5 2.20305e-08 1 443.023 273.84)" fill="#6E759B"></rect><rect width="1.02289" height="8.18314" transform="matrix(-0.866025 0.5 2.20305e-08 1 440.363 275.372)" fill="#6E759B"></rect><rect width="1.02289" height="8.18314" transform="matrix(-0.866025 0.5 2.20305e-08 1 437.707 276.907)" fill="#6E759B"></rect><rect width="1.02289" height="8.18314" transform="matrix(-0.866025 0.5 2.20305e-08 1 435.051 278.441)" fill="#6E759B"></rect><rect width="1.02289" height="8.18314" transform="matrix(-0.866025 0.5 2.20305e-08 1 432.395 279.975)" fill="#6E759B"></rect><rect width="1.02289" height="8.18314" transform="matrix(-0.866025 0.5 2.20305e-08 1 429.736 281.509)" fill="#6E759B"></rect><path d="M471.45 345.361L520.168 317.214L471.711 289.264L422.993 317.41L471.45 345.361Z" fill="url(#paint11_linear)"></path><path d="M471.45 345.361L520.168 317.215V333.345L471.45 361.427V361.492H471.385V361.427L422.993 333.476V317.345L471.45 345.361Z" fill="url(#paint12_linear)"></path><path d="M471.447 343.861L517.553 317.216L471.708 290.767L425.602 317.346L471.447 343.861Z" fill="#A7B2DF"></path><path d="M471.452 327.795L512.398 304.154V317.738L471.452 341.313V341.378V341.313L430.766 317.868V304.285L471.452 327.795Z" fill="url(#paint13_linear)"></path><path d="M471.45 318.652L520.168 290.505L471.711 262.554L422.993 290.701L471.45 318.652Z" fill="url(#paint14_linear)"></path><path d="M471.45 318.651L520.168 290.504V306.635L471.45 334.782H471.385L422.993 306.831V290.7L471.45 318.651Z" fill="url(#paint15_linear)"></path><path d="M471.447 317.15L517.553 290.505L471.708 264.057L425.602 290.701L471.447 317.15Z" fill="url(#paint16_linear)"></path><path d="M471.452 301.15L512.398 277.51V291.028L471.452 314.669L430.766 291.159V277.64L471.452 301.15Z" fill="url(#paint17_linear)"></path><path d="M471.448 291.942L520.166 263.795L471.709 235.844L422.991 263.991L471.448 291.942Z" fill="url(#paint18_linear)"></path><path d="M471.45 291.941L520.168 263.794V279.925L471.45 308.072H471.385L422.993 280.121V263.99L471.45 291.941Z" fill="url(#paint19_linear)"></path><path d="M471.449 290.441L517.555 263.796L471.71 237.347L425.604 263.992L471.449 290.441Z" fill="url(#paint20_linear)"></path><rect width="1.02289" height="8.18314" transform="matrix(-0.866025 0.5 2.20305e-08 1 517.098 269.602)" fill="#6E759B"></rect><rect width="1.02289" height="8.18314" transform="matrix(-0.866025 0.5 2.20305e-08 1 514.436 271.135)" fill="#6E759B"></rect><rect width="1.02289" height="8.18314" transform="matrix(-0.866025 0.5 2.20305e-08 1 511.781 272.67)" fill="#6E759B"></rect><rect width="1.02289" height="8.18314" transform="matrix(-0.866025 0.5 2.20305e-08 1 509.125 274.203)" fill="#6E759B"></rect><rect width="1.02289" height="8.18314" transform="matrix(-0.866025 0.5 2.20305e-08 1 506.467 275.738)" fill="#6E759B"></rect><rect width="1.02289" height="8.18314" transform="matrix(-0.866025 0.5 2.20305e-08 1 503.809 277.272)" fill="#6E759B"></rect><rect width="1.02289" height="8.18314" transform="matrix(-0.866025 0.5 2.20305e-08 1 517.096 322.792)" fill="#6E759B"></rect><rect width="1.02289" height="8.18314" transform="matrix(-0.866025 0.5 2.20305e-08 1 514.436 324.324)" fill="#6E759B"></rect><rect width="1.02289" height="8.18314" transform="matrix(-0.866025 0.5 2.20305e-08 1 511.779 325.859)" fill="#6E759B"></rect><rect width="1.02289" height="8.18314" transform="matrix(-0.866025 0.5 2.20305e-08 1 509.125 327.393)" fill="#6E759B"></rect><rect width="1.02289" height="8.18314" transform="matrix(-0.866025 0.5 2.20305e-08 1 506.469 328.927)" fill="#6E759B"></rect><rect width="1.02289" height="8.18314" transform="matrix(-0.866025 0.5 2.20305e-08 1 503.809 330.462)" fill="#6E759B"></rect><path d="M328.786 338.686L377.504 310.54L329.047 282.589L280.329 310.735L328.786 338.686Z" fill="url(#paint21_linear)"></path><path d="M328.786 338.686L377.504 310.54V326.67L328.786 354.752V354.817H328.721V354.752L280.329 326.801V310.67L328.786 338.686Z" fill="url(#paint22_linear)"></path><path d="M328.785 337.185L374.891 310.541L329.046 284.092L282.94 310.671L328.785 337.185Z" fill="#A7B2DF"></path><path d="M328.79 321.119L369.736 297.479V311.062L328.79 334.638V334.703V334.638L288.104 311.193V297.609L328.79 321.119Z" fill="url(#paint23_linear)"></path><path d="M328.786 311.976L377.504 283.83L329.047 255.879L280.329 284.026L328.786 311.976Z" fill="url(#paint24_linear)"></path><path d="M328.786 311.976L377.504 283.829V299.96L328.786 328.106H328.721L280.329 300.156V284.025L328.786 311.976Z" fill="url(#paint25_linear)"></path><path d="M328.785 310.475L374.891 283.83L329.046 257.382L282.94 284.026L328.785 310.475Z" fill="url(#paint26_linear)"></path><path d="M328.79 294.474L369.736 270.834V284.352L328.79 307.993L288.104 284.483V270.964L328.79 294.474Z" fill="url(#paint27_linear)"></path><path d="M328.786 285.266L377.504 257.12L329.047 229.169L280.329 257.316L328.786 285.266Z" fill="url(#paint28_linear)"></path><path d="M328.786 285.266L377.504 257.12V273.25L328.786 301.397H328.721L280.329 273.446V257.315L328.786 285.266Z" fill="url(#paint29_linear)"></path><path d="M328.785 283.765L374.891 257.121L329.046 230.672L282.94 257.316L328.785 283.765Z" fill="url(#paint30_linear)"></path><rect width="1.02289" height="8.18314" transform="matrix(-0.866025 0.5 2.20305e-08 1 374.436 262.926)" fill="#6E759B"></rect><rect width="1.02289" height="8.18314" transform="matrix(-0.866025 0.5 2.20305e-08 1 371.777 264.46)" fill="#6E759B"></rect><rect width="1.02289" height="8.18314" transform="matrix(-0.866025 0.5 2.20305e-08 1 369.119 265.995)" fill="#6E759B"></rect><rect width="1.02289" height="8.18314" transform="matrix(-0.866025 0.5 2.20305e-08 1 366.465 267.528)" fill="#6E759B"></rect><rect width="1.02289" height="8.18314" transform="matrix(-0.866025 0.5 2.20305e-08 1 363.807 269.062)" fill="#6E759B"></rect><rect width="1.02289" height="8.18314" transform="matrix(-0.866025 0.5 2.20305e-08 1 361.148 270.597)" fill="#6E759B"></rect><rect width="1.02289" height="8.18314" transform="matrix(-0.866025 0.5 2.20305e-08 1 374.434 316.117)" fill="#6E759B"></rect><rect width="1.02289" height="8.18314" transform="matrix(-0.866025 0.5 2.20305e-08 1 371.775 317.649)" fill="#6E759B"></rect><rect width="1.02289" height="8.18314" transform="matrix(-0.866025 0.5 2.20305e-08 1 369.119 319.184)" fill="#6E759B"></rect><rect width="1.02289" height="8.18314" transform="matrix(-0.866025 0.5 2.20305e-08 1 366.463 320.718)" fill="#6E759B"></rect><rect width="1.02289" height="8.18314" transform="matrix(-0.866025 0.5 2.20305e-08 1 363.805 322.252)" fill="#6E759B"></rect><rect width="1.02289" height="8.18314" transform="matrix(-0.866025 0.5 2.20305e-08 1 361.148 323.787)" fill="#6E759B"></rect><path d="M396.968 382.076L445.686 353.929L397.229 325.979L348.511 354.125L396.968 382.076Z" fill="url(#paint31_linear)"></path><path d="M396.969 382.076L445.688 353.93V370.06L396.969 398.142V398.207H396.904V398.142L348.513 370.191V354.06L396.969 382.076Z" fill="url(#paint32_linear)"></path><path d="M396.968 380.576L443.074 353.931L397.23 327.482L351.124 354.061L396.968 380.576Z" fill="#A7B2DF"></path><path d="M396.971 364.509L437.918 340.869V354.452L396.971 378.027V378.093V378.027L356.286 354.583V340.999L396.971 364.509Z" fill="url(#paint33_linear)"></path><path d="M396.968 355.366L445.686 327.22L397.229 299.269L348.511 327.416L396.968 355.366Z" fill="url(#paint34_linear)"></path><path d="M396.969 355.366L445.688 327.219V343.349L396.969 371.496H396.904L348.513 343.545V327.415L396.969 355.366Z" fill="url(#paint35_linear)"></path><path d="M396.968 353.865L443.074 327.22L397.23 300.771L351.124 327.416L396.968 353.865Z" fill="url(#paint36_linear)"></path><path d="M396.971 337.865L437.918 314.224V327.742L396.971 351.383L356.286 327.873V314.354L396.971 337.865Z" fill="url(#paint37_linear)"></path><path d="M396.968 328.656L445.686 300.51L397.229 272.559L348.511 300.705L396.968 328.656Z" fill="url(#paint38_linear)"></path><path d="M396.969 328.656L445.688 300.509V316.64L396.969 344.787H396.904L348.513 316.836V300.705L396.969 328.656Z" fill="url(#paint39_linear)"></path><path d="M396.968 327.155L443.074 300.511L397.23 274.062L351.124 300.706L396.968 327.155Z" fill="url(#paint40_linear)"></path><rect width="1.02289" height="8.18314" transform="matrix(-0.866025 0.5 2.20305e-08 1 442.619 306.316)" fill="#6E759B"></rect><rect width="1.02289" height="8.18314" transform="matrix(-0.866025 0.5 2.20305e-08 1 439.961 307.849)" fill="#6E759B"></rect><rect width="1.02289" height="8.18314" transform="matrix(-0.866025 0.5 2.20305e-08 1 437.303 309.384)" fill="#6E759B"></rect><rect width="1.02289" height="8.18314" transform="matrix(-0.866025 0.5 2.20305e-08 1 434.646 310.917)" fill="#6E759B"></rect><rect width="1.02289" height="8.18314" transform="matrix(-0.866025 0.5 2.20305e-08 1 431.99 312.452)" fill="#6E759B"></rect><rect width="1.02289" height="8.18314" transform="matrix(-0.866025 0.5 2.20305e-08 1 429.332 313.986)" fill="#6E759B"></rect><rect width="1.02289" height="8.18314" transform="matrix(-0.866025 0.5 2.20305e-08 1 442.615 359.508)" fill="#6E759B"></rect><rect width="1.02289" height="8.18314" transform="matrix(-0.866025 0.5 2.20305e-08 1 439.957 361.039)" fill="#6E759B"></rect><rect width="1.02289" height="8.18314" transform="matrix(-0.866025 0.5 2.20305e-08 1 437.303 362.574)" fill="#6E759B"></rect><rect width="1.02289" height="8.18314" transform="matrix(-0.866025 0.5 2.20305e-08 1 434.646 364.108)" fill="#6E759B"></rect><rect width="1.02289" height="8.18314" transform="matrix(-0.866025 0.5 2.20305e-08 1 431.988 365.642)" fill="#6E759B"></rect><rect width="1.02289" height="8.18314" transform="matrix(-0.866025 0.5 2.20305e-08 1 429.33 367.176)" fill="#6E759B"></rect><path opacity="0.3" fill-rule="evenodd" clip-rule="evenodd" d="M224.577 112.455C214.981 82.7508 232.268 51.1637 276.436 28.2439C349.007 -9.41461 466.668 -9.41462 539.239 28.2438C584.968 51.9735 601.882 84.9936 589.981 115.596L519.335 331.839L398.281 396.083L281.473 328.653L224.513 112.455H224.577Z" fill="url(#paint41_linear)"></path><path opacity="0.45" fill-rule="evenodd" clip-rule="evenodd" d="M467.3 63.7131H460.459V70.5534H467.3V63.7131ZM320.233 67.1335H313.393V73.9738H320.233V67.1335ZM393.98 73.3324H387.14V80.1727H393.98V73.3324ZM432.031 105.396H438.872V112.237H432.031V105.396ZM393.552 108.603H400.393V115.443H393.552V108.603ZM405.737 159.477H398.897V166.317H405.737V159.477ZM419.415 190.258H426.255V197.099H419.415V190.258ZM388.633 197.098H395.473V203.939H388.633V197.098ZM347.593 162.897H340.753V169.738H347.593V162.897ZM361.273 132.116H368.113V138.956H361.273V132.116ZM310.614 111.809H303.773V118.649H310.614V111.809ZM429.675 166.318H436.515V173.158H429.675V166.318ZM467.3 138.956H460.459V145.797H467.3V138.956ZM333.919 111.595H340.759V118.436H333.919V111.595ZM398.897 94.4942H405.737V101.334H398.897V94.4942Z" fill="url(#paint42_linear)"></path><path d="M207.141 425.713L288.261 379.239" stroke="url(#paint43_linear)" stroke-width="2"></path><path opacity="0.15" d="M249.709 223.024L93.0804 132.579C90.7558 131.23 88.8538 132.319 88.8538 135.018V262.531C88.8538 265.23 90.7395 268.498 93.0804 269.848L249.709 360.292C252.05 361.642 253.936 360.552 253.936 357.854V230.34C253.936 227.657 252.034 224.373 249.709 223.024Z" fill="url(#paint44_linear)"></path><path opacity="0.3" d="M232.723 231.518L76.0941 141.073C73.7695 139.724 71.8675 140.813 71.8675 143.512V271.025C71.8675 273.724 73.7532 276.992 76.0941 278.342L232.723 368.786C235.063 370.136 236.949 369.047 236.949 366.348V238.834C236.949 236.151 235.047 232.867 232.723 231.518Z" fill="url(#paint45_linear)"></path><rect opacity="0.2" width="59.5005" height="79.5247" rx="4.92741" transform="matrix(0.866025 0.5 -2.20305e-08 1 29.8066 160.824)" fill="#4D6AB3"></rect><rect opacity="0.23" width="45.1975" height="41.1927" rx="4.92741" transform="matrix(0.866025 0.5 -2.20305e-08 1 36.248 173.696)" fill="url(#paint46_linear)"></rect><path fill-rule="evenodd" clip-rule="evenodd" d="M58.3381 196.819C60.003 199.703 60.003 202.82 58.3381 203.781C56.6733 204.742 53.974 203.184 52.3092 200.3C50.6443 197.417 50.6443 194.3 52.3092 193.338C53.974 192.377 56.6733 193.936 58.3381 196.819" fill="white"></path><path fill-rule="evenodd" clip-rule="evenodd" d="M45.5781 209.108L45.5781 210.515C45.5781 211.291 46.1238 212.236 46.7962 212.624L63.8486 222.469C64.521 222.858 65.0666 222.543 65.0666 221.766L65.0666 220.36C65.0666 216.104 60.253 210.56 55.3224 207.713C50.3918 204.866 45.5781 204.852 45.5781 209.108Z" fill="white"></path><rect width="28.606" height="3.43272" rx="1.71636" transform="matrix(0.866025 0.5 -2.20305e-08 1 37.7324 224.329)" fill="white"></rect><rect width="17.7357" height="3.43272" rx="1.71636" transform="matrix(0.866025 0.5 -2.20305e-08 1 37.7324 231.767)" fill="white"></rect><rect opacity="0.2" width="59.5005" height="79.5247" rx="4.92741" transform="matrix(0.866025 0.5 -2.20305e-08 1 86.8301 193.115)" fill="#4D6AB3"></rect><path fill-rule="evenodd" clip-rule="evenodd" d="M115.364 229.111C117.028 231.995 117.028 235.112 115.364 236.073C113.699 237.034 110.999 235.476 109.335 232.592C107.67 229.709 107.67 226.592 109.335 225.63C110.999 224.669 113.699 226.228 115.364 229.111" fill="white"></path><path fill-rule="evenodd" clip-rule="evenodd" d="M102.604 241.4L102.604 242.807C102.604 243.583 103.149 244.528 103.822 244.916L120.874 254.761C121.546 255.15 122.092 254.835 122.092 254.058L122.092 252.652C122.092 248.396 117.278 242.852 112.348 240.005C107.417 237.158 102.604 237.144 102.604 241.4Z" fill="white"></path><rect width="28.606" height="3.43272" rx="1.71636" transform="matrix(0.866025 0.5 -2.20305e-08 1 94.7578 256.621)" fill="white"></rect><rect width="17.7357" height="3.43272" rx="1.71636" transform="matrix(0.866025 0.5 -2.20305e-08 1 94.7578 264.059)" fill="white"></rect><g opacity="0.35" filter="url(#filter0_f)"><rect width="61.6912" height="82.4527" rx="4.92741" transform="matrix(0.866025 0.5 -2.20305e-08 1 80.5527 197.739)" fill="#4D6AB3"></rect></g><rect width="68.1509" height="91.0863" rx="4.92741" transform="matrix(0.866025 0.5 -2.20305e-08 1 70.1387 193.885)" fill="#37848F"></rect><rect opacity="0.3" width="51.7685" height="47.1814" rx="4.92741" transform="matrix(0.866025 0.5 -2.20305e-08 1 77.5137 208.629)" fill="url(#paint47_linear)"></rect><path fill-rule="evenodd" clip-rule="evenodd" d="M102.297 235.114C104.203 238.417 104.203 241.987 102.297 243.088C100.39 244.188 97.298 242.404 95.3911 239.101C93.4842 235.798 93.4842 232.228 95.3911 231.127C97.298 230.026 100.39 231.811 102.297 235.114" fill="white"></path><path fill-rule="evenodd" clip-rule="evenodd" d="M87.6816 249.189L87.6816 250.8C87.6816 251.69 88.3067 252.772 89.0768 253.217L108.608 264.493C109.378 264.938 110.003 264.577 110.003 263.688L110.003 262.077C110.003 257.202 104.49 250.852 98.8426 247.591C93.1951 244.331 87.6816 244.315 87.6816 249.189Z" fill="white"></path><rect width="32.7649" height="3.93178" rx="1.96589" transform="matrix(0.866025 0.5 -2.20305e-08 1 79.2188 266.623)" fill="white"></rect><rect width="20.3142" height="3.93178" rx="1.96589" transform="matrix(0.866025 0.5 -2.20305e-08 1 79.2188 275.142)" fill="white"></rect><rect opacity="0.2" width="59.5005" height="79.5247" rx="4.92741" transform="matrix(0.866025 0.5 -2.20305e-08 1 151 221.203)" fill="#4D6AB3"></rect><rect opacity="0.23" width="45.1975" height="41.1927" rx="4.92741" transform="matrix(0.866025 0.5 -2.20305e-08 1 157.441 234.075)" fill="url(#paint48_linear)"></rect><path fill-rule="evenodd" clip-rule="evenodd" d="M179.532 257.198C181.196 260.082 181.196 263.199 179.532 264.16C177.867 265.121 175.167 263.563 173.503 260.679C171.838 257.795 171.838 254.679 173.503 253.717C175.167 252.756 177.867 254.315 179.532 257.198" fill="white"></path><path fill-rule="evenodd" clip-rule="evenodd" d="M166.771 269.487L166.771 270.893C166.771 271.67 167.317 272.615 167.99 273.003L185.042 282.848C185.714 283.237 186.26 282.922 186.26 282.145L186.26 280.739C186.26 276.483 181.446 270.938 176.516 268.092C171.585 265.245 166.771 265.231 166.771 269.487Z" fill="white"></path><rect width="28.606" height="3.43272" rx="1.71636" transform="matrix(0.866025 0.5 -2.20305e-08 1 158.928 284.708)" fill="white"></rect><rect width="17.7357" height="3.43272" rx="1.71636" transform="matrix(0.866025 0.5 -2.20305e-08 1 158.928 292.146)" fill="white"></rect><rect opacity="0.2" width="59.5005" height="79.5247" rx="4.92741" transform="matrix(0.866025 0.5 -2.20305e-08 1 205 270.203)" fill="#4D6AB3"></rect><rect opacity="0.23" width="45.1975" height="41.1927" rx="4.92741" transform="matrix(0.866025 0.5 -2.20305e-08 1 211.439 283.075)" fill="url(#paint49_linear)"></rect><path fill-rule="evenodd" clip-rule="evenodd" d="M233.53 306.198C235.194 309.082 235.194 312.199 233.53 313.16C231.865 314.121 229.165 312.563 227.501 309.679C225.836 306.795 225.836 303.679 227.501 302.717C229.165 301.756 231.865 303.315 233.53 306.198" fill="white"></path><path fill-rule="evenodd" clip-rule="evenodd" d="M220.77 318.487L220.77 319.893C220.77 320.67 221.315 321.615 221.988 322.003L239.04 331.848C239.712 332.237 240.258 331.922 240.258 331.145L240.258 329.739C240.258 325.483 235.444 319.938 230.514 317.092C225.583 314.245 220.77 314.231 220.77 318.487Z" fill="white"></path><rect width="28.606" height="3.43272" rx="1.71636" transform="matrix(0.866025 0.5 -2.20305e-08 1 212.928 333.708)" fill="white"></rect><rect width="17.7357" height="3.43272" rx="1.71636" transform="matrix(0.866025 0.5 -2.20305e-08 1 212.928 341.146)" fill="white"></rect><path d="M248.008 390.535V495.979C248.008 499.303 245.681 503.349 242.813 504.991L182.346 539.858C182.326 539.858 182.326 539.878 182.306 539.878C180.862 540.68 178.997 541.1 177.131 541.1V458.327L248.008 390.535Z" fill="url(#paint50_linear)"></path><path d="M177.129 541.1C175.284 541.1 173.439 540.7 172.015 539.919C171.975 539.899 171.955 539.899 171.935 539.879C171.935 539.859 171.914 539.859 171.914 539.859L71.1753 481.779C68.3074 480.117 65.9809 476.092 65.9809 472.767V403.633L177.129 458.307V541.1Z" fill="url(#paint51_linear)"></path><path d="M245.477 384.867L141.85 325.126C138.962 323.464 134.811 324.105 132.564 326.548L67.3838 397.545C65.1376 399.988 65.6591 403.313 68.527 404.975L172.154 464.716C175.042 466.379 179.194 465.738 181.44 463.294L246.62 392.298C248.867 389.854 248.365 386.53 245.477 384.867Z" fill="url(#paint52_linear)"></path><path d="M82.3654 401.51C82.3654 401.53 82.3855 401.53 82.3654 401.51L171.693 453.02C171.733 453.04 171.773 453.06 171.813 453.08C173.719 454.102 176.366 453.681 177.85 452.119C177.87 452.099 177.87 452.099 177.89 452.079L231.92 393.239L232.16 392.978L232.14 392.958C233.364 391.376 232.983 389.353 231.198 388.312C231.178 388.312 231.178 388.292 231.158 388.292L141.85 336.802C141.81 336.782 141.77 336.762 141.73 336.742C140.767 336.221 139.624 336.081 138.521 336.261C137.438 336.441 136.435 336.942 135.693 337.703C135.673 337.723 135.673 337.723 135.653 337.743L81.6434 396.563C81.6233 396.603 81.5832 396.623 81.5632 396.663C80.1793 398.286 80.5403 400.428 82.3654 401.51Z" fill="#3B3B5F"></path><path d="M232.162 392.978L178.012 451.959C176.368 453.761 173.68 454.162 171.554 452.94L81.8255 401.209L138.823 339.165L232.162 392.978Z" fill="#8ED3CB"></path><path d="M207.654 402.331C201.216 398.606 197.205 405.556 190.747 401.831C184.31 398.106 188.321 391.176 181.863 387.451C175.425 383.746 171.414 390.675 164.956 386.95C158.498 383.225 162.509 376.296 156.071 372.571C149.613 368.846 145.602 375.795 139.144 372.07C132.687 368.345 136.698 361.416 130.24 357.69" stroke="#2DB389" stroke-miterlimit="10"></path><path d="M197.484 415.229C191.969 412.044 187.958 418.974 182.423 415.789C176.907 412.605 180.898 405.676 175.383 402.471C169.848 399.287 165.837 406.216 160.321 403.032C154.806 399.848 158.817 392.918 153.282 389.714C147.747 386.53 143.735 393.459 138.22 390.275C132.685 387.09 136.696 380.141 131.161 376.957C125.625 373.772 121.614 380.702 116.079 377.517" stroke="#2DB389" stroke-miterlimit="10"></path><path d="M187.297 428.146C179.555 423.68 175.544 430.63 167.823 426.164C160.081 421.698 164.093 414.768 156.351 410.302C148.61 405.836 144.599 412.786 136.877 408.319C129.136 403.853 133.147 396.924 125.405 392.458C117.664 387.992 113.653 394.941 105.911 390.475" stroke="#2DB389" stroke-miterlimit="10"></path><path d="M138.522 336.261L138.822 339.145L232.121 392.958C233.344 391.376 232.963 389.353 231.178 388.312C231.158 388.312 231.158 388.292 231.138 388.292L141.831 336.802C141.791 336.782 141.75 336.762 141.71 336.742C140.768 336.221 139.605 336.081 138.522 336.261Z" fill="#031F60"></path><path d="M94.8173 529.024C96.2613 530.826 99.5103 531.747 101.757 531.247C103.401 530.866 104.484 530.586 105.728 530.185C107.352 529.665 109.819 529.644 111.524 529.544C113.569 529.424 115.194 529.584 117.219 529.284C118.964 529.024 120.749 528.523 122.374 527.822C124.54 526.901 128.25 522.475 125.542 520.812C125.342 520.692 125.101 520.652 124.861 520.612C117.58 519.511 108.174 519.951 105.868 517.147C105.868 517.147 96.0808 516.667 95.9805 516.647C96.2814 516.667 94.3761 525.559 94.2156 526.28C94.1354 526.68 94.0351 527.081 94.0752 527.502C94.1555 528.082 94.4764 528.583 94.8173 529.024Z" fill="#2D2979"></path><path d="M100.974 472.206L96.843 468.741C96.843 468.741 94.2358 475.551 94.2959 477.974C94.3561 480.417 96.0408 516.687 96.0408 516.687C96.0408 516.687 101.576 520.872 105.888 517.147C105.888 517.147 108.836 474.249 109.498 467.54L100.974 472.206Z" fill="#133142"></path><path d="M116.698 540.119C118.303 541.781 121.632 542.402 123.798 541.701C125.402 541.18 126.445 540.78 127.649 540.279C129.213 539.618 131.68 539.358 133.365 539.097C135.39 538.797 137.015 538.797 139.02 538.316C140.725 537.896 142.47 537.235 144.014 536.394C146.1 535.272 149.369 530.546 146.521 529.124C146.3 529.024 146.06 529.004 145.819 528.984C138.459 528.563 129.153 529.845 126.586 527.281C126.586 527.281 116.799 527.682 116.698 527.702C116.999 527.682 115.916 536.734 115.836 537.455C115.776 537.856 115.736 538.276 115.816 538.677C115.936 539.238 116.297 539.718 116.698 540.119Z" fill="#232020"></path><path d="M114.974 488.989C115.034 491.432 116.718 527.702 116.718 527.702C116.718 527.702 122.294 531.026 126.606 527.281C126.606 527.281 129.514 485.244 130.176 478.535" fill="#133142"></path><path d="M121.641 550.292L121.642 550.292C123.023 551.088 123.634 552.078 123.634 552.996C123.634 553.914 123.023 554.905 121.642 555.7L121.641 555.7L75.0324 582.576C73.6533 583.37 71.8264 583.777 69.9834 583.777C68.1402 583.777 66.3188 583.37 64.9503 582.577L64.9496 582.577L18.3405 555.7L18.3402 555.7C16.9586 554.905 16.3479 553.914 16.3479 552.996C16.3479 552.078 16.9586 551.088 18.3402 550.292L18.3405 550.292L64.9494 523.416L121.641 550.292ZM121.641 550.292L75.0324 523.416M121.641 550.292L75.0324 523.416M75.0324 523.416L75.0322 523.416C73.653 522.622 71.8311 522.215 69.9909 522.215C68.1507 522.215 66.3288 522.622 64.9496 523.416L75.0324 523.416Z" stroke="url(#paint53_linear)" stroke-width="0.693295"></path><path d="M121.813 494.156L75.2034 467.279C72.3154 465.617 67.6625 465.617 64.7745 467.279L18.1653 494.156C15.2773 495.818 15.2773 498.502 18.1653 500.164L64.7745 527.041C67.6424 528.703 72.3154 528.703 75.2034 527.041L121.813 500.164C124.701 498.502 124.701 495.818 121.813 494.156Z" fill="#BEC7E7"></path><path d="M69.9909 468.04C68.3864 468.04 66.8622 468.4 65.7792 469.021L19.1701 495.898C18.3077 496.398 18.0068 496.879 18.0068 497.159C18.0068 497.44 18.3077 497.94 19.1701 498.421L65.7792 525.298C66.8622 525.918 68.3864 526.279 69.9909 526.279C71.5953 526.279 73.1196 525.918 74.2026 525.298L120.812 498.421C121.674 497.92 121.975 497.42 121.975 497.159C121.975 496.879 121.674 496.378 120.812 495.898L74.2026 469.021C73.1396 468.4 71.5953 468.04 69.9909 468.04ZM69.9909 466.037C71.8761 466.037 73.7613 466.457 75.2053 467.279L121.814 494.155C124.702 495.817 124.702 498.501 121.814 500.163L75.2053 527.04C73.7613 527.861 71.8761 528.282 69.9909 528.282C68.1057 528.282 66.2204 527.861 64.7764 527.04L18.1673 500.163C15.2793 498.501 15.2793 495.817 18.1673 494.155L64.7965 467.279C66.2204 466.457 68.1057 466.037 69.9909 466.037Z" fill="white"></path><path d="M123.98 544.124C123.96 545.366 123.138 546.347 121.814 547.128L75.2053 574.005C73.8616 574.786 72.1368 575.207 69.9909 575.247V528.263C72.0366 528.243 73.7613 527.822 75.2053 527.021L121.814 500.144C122.978 499.483 123.98 498.502 123.98 497.14V544.124Z" fill="url(#paint54_linear)"></path><path d="M16.0202 544.124C16.0402 545.366 16.8625 546.347 18.1862 547.128L64.7953 574.005C66.139 574.786 67.8638 575.207 70.0098 575.247V528.263C67.9641 528.243 66.2393 527.822 64.7953 527.021L18.1862 500.144C17.023 499.483 16.0202 498.502 16.0202 497.14V544.124Z" fill="url(#paint55_linear)"></path><path d="M96.5445 458.207C91.7111 459.969 59.0205 472.206 59.0205 472.206C59.0205 472.206 60.304 495.357 67.2834 491.612L100.957 472.206L109.48 467.54C110.262 459.989 101.859 456.264 96.5445 458.207Z" fill="#133142"></path><path d="M130.176 478.535C130.938 470.984 122.535 467.259 117.22 469.202C112.387 470.964 79.6963 483.201 79.6963 483.201L47.2664 480.457C46.4843 492.574 54.3461 497.761 63.3911 501.746C72.4362 505.712 80.9799 506.352 87.9592 502.607L121.632 483.201L117.521 479.736C117.521 479.736 114.914 486.525 114.974 488.969" fill="#133142"></path><path d="M82.5665 401.41C81.8646 394.52 77.1916 389.073 70.112 389.113C62.5711 389.153 56.4943 395.281 56.5344 402.811C56.5544 407.217 58.6803 411.063 61.9293 413.546C61.9293 413.546 62.1098 414.427 62.3505 415.268C62.3505 415.268 61.6285 418.913 61.2875 419.514C60.8664 420.295 58.8007 419.534 56.053 419.134C54.1678 418.853 53.7467 422.358 54.9099 425.643C55.9728 428.587 60.6056 431.691 64.9176 432.452C69.2295 433.213 76.2289 430.529 73.742 428.627C71.2552 426.744 71.2351 426.023 71.6162 424.721C71.9972 423.42 72.7593 420.936 72.7593 420.936C74.3838 421.257 75.7476 421.417 76.4495 421.357C79.2573 421.096 80.6412 420.536 81.5437 417.331C83.1882 411.403 82.9676 404.814 82.5665 401.41Z" fill="#FFABAA"></path><path d="M67.3834 425.002C67.3834 425.002 69.6897 424.942 71.5549 424.921C71.575 424.841 71.595 424.781 71.6151 424.701C71.9961 423.399 72.7582 420.916 72.7582 420.916C74.3827 421.236 75.7465 421.397 76.4485 421.337C77.6317 421.236 78.5543 421.056 79.3164 420.656C77.6317 420.956 74.9042 419.554 74.2825 418.272C73.6407 416.991 73.6407 412.705 73.6407 412.705C73.6407 412.705 73.4802 413.426 73.1192 414.167C72.7582 414.908 71.936 414.768 71.936 414.768L69.2686 414.447L61.3667 413.065C61.5472 413.226 61.7277 413.406 61.9282 413.546C61.9282 413.546 62.1087 414.427 62.3494 415.268C62.3494 415.268 61.6274 418.913 61.2865 419.514C61.0859 419.855 60.5645 419.895 59.8023 419.794L60.8452 421.156L67.3834 425.002Z" fill="#F28F8F"></path><path d="M83.8691 388.252C79.5572 389.594 63.5528 383.445 60.6648 392.958C60.6648 392.958 57.496 394.12 56.5334 398.766C55.5507 403.412 55.5507 406.857 58.198 411.503C60.8253 416.15 61.6877 418.273 61.6877 418.273C61.6877 418.273 63.5929 419.855 66.2202 420.335C68.8475 420.816 71.6753 419.675 72.8185 416.45C73.4001 414.788 73.6408 412.705 73.6408 412.705C73.0191 413.686 71.174 413.146 70.1712 411.143C69.2887 409.38 68.9478 407.097 70.091 405.375C71.535 403.172 74.2224 403.793 74.7438 405.515C75.1851 406.977 74.9645 409.28 74.9645 409.28C74.9645 409.28 76.7895 409.481 77.1906 407.518C77.4714 406.136 77.4714 404.554 77.4112 403.272C77.3511 402.091 77.7121 400.869 78.5745 400.068C79.7979 398.946 79.3566 397.164 79.3566 397.164C79.3566 397.164 83.1471 396.964 85.1527 393.319C87.1783 389.674 88.1811 386.91 83.8691 388.252Z" fill="url(#paint56_linear)"></path><path d="M59.8023 419.694C59.5015 420.696 60.3438 422.338 63.9137 424.221C68.7271 426.784 71.595 426.464 71.595 426.464C71.595 426.464 77.3109 429.548 79.7977 431.29C82.9264 433.473 84.3102 439.802 84.7314 450.456C85.1125 459.909 85.2127 474.89 85.0724 482.82C84.9921 486.465 82.9063 489.77 79.6172 491.332C77.3911 492.393 74.6033 493.235 71.5148 492.974C64.0341 492.353 50.296 485.544 47.2476 480.437C47.3278 469.622 48.2503 463.033 47.8693 456.565C47.2074 445.149 44.7005 436.117 47.8492 426.944C50.5968 418.973 53.7656 418.593 56.8341 419.013C58.5789 419.294 59.8023 419.694 59.8023 419.694Z" fill="#1B4A8F"></path><path d="M61.6063 418.513C60.3629 418.353 60.0219 418.813 59.1796 419.554C59.1796 419.554 58.0966 422.559 62.1278 425.202C66.1589 427.826 72.4363 426.924 72.4363 426.924L73.9004 427.726C73.9004 427.726 73.2185 423.6 72.0152 423.32C72.0152 423.32 68.4854 423.5 64.8553 421.737C61.2253 420.015 61.6063 418.513 61.6063 418.513Z" fill="#163584"></path><path d="M133.406 429.648C132.664 431.23 131.521 432.412 130.639 434.735C129.876 436.778 129.515 437.599 128.132 439.081C126.627 440.683 122.275 443.187 115.958 446.351C109.66 449.515 104.647 449.395 100.976 447.993C92.9141 444.929 88.4818 437.799 83.3074 433.674C79.6974 430.77 76.1275 432.091 75.5259 434.735C75.0445 436.798 76.8295 442.586 83.0467 448.574C87.8601 453.22 96.0828 458.327 103.002 458.507C107.414 458.628 112.829 457.346 116.499 455.684C122.516 452.98 126.828 450.096 132.183 446.751C133.647 445.83 134.951 445.53 137.939 444.108C140.927 442.706 144.036 440.343 145.6 438.06C147.164 435.776 147.365 434.715 147.044 434.194C146.643 433.553 145.921 433.694 145.099 434.655C144.256 435.616 143.053 437.339 140.706 438.76C140.706 438.76 142.632 436.758 143.675 435.436C144.718 434.134 145.54 432.712 145.981 431.631C146.523 430.309 145.379 428.507 144.517 429.448C143.655 430.409 143.254 431.37 141.669 433.273C140.245 435.015 138.841 435.997 138.841 435.997C138.841 435.997 140.446 433.834 141.428 431.771C142.431 429.708 142.411 428.647 142.351 427.966C142.311 427.265 141.328 426.464 140.406 427.766C139.583 428.947 139.062 430.79 137.137 432.812C135.753 434.274 134.549 435.116 134.529 434.715C134.489 434.314 135.372 433.513 135.873 431.811C136.334 430.189 135.833 428.326 134.91 428.146C133.968 428.006 134.148 428.066 133.406 429.648Z" fill="#FFABAA"></path><path d="M76.4297 432.552C75.2464 433.674 74.6848 435.857 75.447 438.36C76.2091 440.863 79.0169 444.969 81.5238 448.033C83.0881 449.956 87.3199 453.721 87.3199 453.721C87.3199 453.721 93.5772 449.455 95.1816 444.208C95.1816 444.208 87.1795 436.538 85.0536 434.555C82.9076 432.572 79.438 429.668 76.4297 432.552Z" fill="#163584"></path><path fill-rule="evenodd" clip-rule="evenodd" d="M20.5094 187.428L35.7692 201.848C35.8479 202.53 36.4772 209.374 35.2448 216.007C34.3534 220.832 32.518 225.525 28.7948 227.701C28.7686 227.714 28.7358 227.734 28.703 227.754C28.6703 227.773 28.6375 227.793 28.6113 227.806C28.585 227.819 28.5523 227.839 28.5195 227.858C28.4867 227.878 28.4539 227.898 28.4277 227.911C28.0869 228.121 27.7198 228.33 27.3265 228.488C26.0679 229.065 24.6521 229.379 23.0002 229.353C21.9515 229.327 20.7978 228.96 19.6441 228.278C18.4905 227.622 17.3368 226.652 16.288 225.472C9.05137 217.239 6.06232 207.328 4.90866 199.331C3.75499 191.334 4.21779 185.305 4.29645 184.702H4.29795L4.64345 184.529C4.64538 184.524 4.64646 184.52 4.64646 184.517L4.79593 184.452C4.79593 184.403 4.80962 184.41 4.81965 184.416C4.82543 184.419 4.83 184.422 4.83 184.412L4.86687 184.418L5.03936 184.331C5.03976 184.322 5.03976 184.314 5.03976 184.308L5.07531 184.313L5.22206 184.24C5.22329 184.225 5.22329 184.212 5.22329 184.203L5.27507 184.214L5.2969 184.203L5.31657 184.222L20.5094 187.428ZM20.2996 227.072C21.3484 227.675 22.3972 228.016 23.3411 228.042C25.0716 228.068 26.5399 227.701 27.7984 227.098C31.1546 224.922 32.8588 220.491 33.6979 215.928C34.8105 209.772 34.3143 203.452 34.2542 202.686C34.2505 202.639 34.2485 202.613 34.2485 202.609L19.6703 188.817L5.74769 185.881C5.61659 187.559 5.35439 192.75 6.2983 199.227C7.42575 207.04 10.3099 216.61 17.2581 224.529C18.202 225.604 19.2508 226.469 20.2996 227.072Z" fill="url(#paint57_linear)"></path><path d="M19.5957 187.952L34.8556 202.373C34.908 203.055 35.5373 209.898 34.3312 216.532C33.1251 223.165 30.0836 229.589 22.847 229.458C21.7982 229.432 20.6445 229.065 19.4909 228.383C18.3372 227.701 17.1573 226.757 16.1347 225.551C8.87189 217.344 5.88285 207.433 4.72918 199.436C3.57552 191.439 4.23101 185.356 4.28345 184.727L19.5957 187.952Z" fill="url(#paint58_linear)"></path><path d="M18.8788 191.912L31.4466 203.75C31.4898 204.309 32.0081 209.927 31.0147 215.372C30.0214 220.817 27.5165 226.09 21.5565 225.983C20.6927 225.961 19.7426 225.66 18.7924 225.1C17.8423 224.541 16.8705 223.766 16.0284 222.776C10.0468 216.039 7.58504 207.904 6.63489 201.339C5.68475 194.775 6.2246 189.782 6.26779 189.265L18.8788 191.912Z" fill="#8BCDB8"></path><path opacity="0.4" d="M12.8026 193.938L25.3704 205.775C25.4136 206.335 25.9319 211.952 24.9386 217.397C23.9452 222.843 21.4403 228.116 15.4803 228.008C14.6165 227.987 13.6664 227.685 12.7162 227.126C11.7661 226.566 10.7944 225.791 9.95219 224.801C3.9706 218.065 1.50887 209.929 0.558722 203.365C-0.391422 196.8 0.148432 191.807 0.191621 191.29L12.8026 193.938Z" fill="url(#paint59_linear)"></path><defs><filter id="filter0_f" x="65.7705" y="184.838" width="82.9906" height="139.101" filterUnits="userSpaceOnUse" color-interpolation-filters="sRGB"><feGaussianBlur stdDeviation="7.39111"></feGaussianBlur></filter><linearGradient id="paint0_linear" x1="-39.0534" y1="191.735" x2="36.6549" y2="357.544" gradientUnits="userSpaceOnUse"><stop stop-color="#2DB389" stop-opacity="0.33"></stop><stop offset="1" stop-color="#2DB389" stop-opacity="0"></stop></linearGradient><linearGradient id="paint1_linear" x1="424.1" y1="257.7" x2="343.372" y2="353.063" gradientUnits="userSpaceOnUse"><stop stop-color="#A7B2DF"></stop><stop offset="1" stop-color="#D0D7ED"></stop></linearGradient><linearGradient id="paint2_linear" x1="413.722" y1="267.863" x2="410.089" y2="316.16" gradientUnits="userSpaceOnUse"><stop stop-color="#A7B2DF"></stop><stop offset="1" stop-color="#E3E7F3"></stop></linearGradient><linearGradient id="paint3_linear" x1="411.13" y1="254.865" x2="409.82" y2="314.743" gradientUnits="userSpaceOnUse"><stop stop-color="#4A517E"></stop><stop offset="1" stop-color="#D0D7ED"></stop></linearGradient><linearGradient id="paint4_linear" x1="424.1" y1="230.991" x2="343.372" y2="326.353" gradientUnits="userSpaceOnUse"><stop offset="0.317708" stop-color="#A7B2DF"></stop><stop offset="1" stop-color="#D0D7ED"></stop></linearGradient><linearGradient id="paint5_linear" x1="413.722" y1="241.152" x2="410.089" y2="289.449" gradientUnits="userSpaceOnUse"><stop stop-color="#A7B2DF"></stop><stop offset="1" stop-color="#E3E7F3"></stop></linearGradient><linearGradient id="paint6_linear" x1="422.671" y1="231.562" x2="346.263" y2="321.801" gradientUnits="userSpaceOnUse"><stop stop-color="#A7B2DF"></stop><stop offset="1" stop-color="#D0D7ED"></stop></linearGradient><linearGradient id="paint7_linear" x1="411.13" y1="228.222" x2="409.824" y2="287.994" gradientUnits="userSpaceOnUse"><stop stop-color="#4A517E"></stop><stop offset="1" stop-color="#D0D7ED"></stop></linearGradient><linearGradient id="paint8_linear" x1="424.1" y1="204.281" x2="343.372" y2="299.643" gradientUnits="userSpaceOnUse"><stop stop-color="#A7B2DF"></stop><stop offset="1" stop-color="#D0D7ED"></stop></linearGradient><linearGradient id="paint9_linear" x1="413.722" y1="214.442" x2="410.089" y2="262.739" gradientUnits="userSpaceOnUse"><stop stop-color="#A7B2DF"></stop><stop offset="1" stop-color="#E3E7F3"></stop></linearGradient><linearGradient id="paint10_linear" x1="412.849" y1="187.916" x2="407.347" y2="245.632" gradientUnits="userSpaceOnUse"><stop stop-color="#A7B2DF"></stop><stop offset="1" stop-color="#E3E7F3"></stop></linearGradient><linearGradient id="paint11_linear" x1="498.176" y1="306.653" x2="417.448" y2="402.015" gradientUnits="userSpaceOnUse"><stop stop-color="#A7B2DF"></stop><stop offset="1" stop-color="#D0D7ED"></stop></linearGradient><linearGradient id="paint12_linear" x1="487.796" y1="316.815" x2="484.163" y2="365.112" gradientUnits="userSpaceOnUse"><stop stop-color="#A7B2DF"></stop><stop offset="1" stop-color="#E3E7F3"></stop></linearGradient><linearGradient id="paint13_linear" x1="485.204" y1="303.818" x2="483.894" y2="363.696" gradientUnits="userSpaceOnUse"><stop stop-color="#4A517E"></stop><stop offset="1" stop-color="#D0D7ED"></stop></linearGradient><linearGradient id="paint14_linear" x1="498.176" y1="279.944" x2="417.448" y2="375.306" gradientUnits="userSpaceOnUse"><stop offset="0.317708" stop-color="#A7B2DF"></stop><stop offset="1" stop-color="#D0D7ED"></stop></linearGradient><linearGradient id="paint15_linear" x1="487.796" y1="290.105" x2="484.163" y2="338.402" gradientUnits="userSpaceOnUse"><stop stop-color="#A7B2DF"></stop><stop offset="1" stop-color="#E3E7F3"></stop></linearGradient><linearGradient id="paint16_linear" x1="496.743" y1="280.515" x2="420.336" y2="370.753" gradientUnits="userSpaceOnUse"><stop stop-color="#A7B2DF"></stop><stop offset="1" stop-color="#D0D7ED"></stop></linearGradient><linearGradient id="paint17_linear" x1="485.204" y1="277.174" x2="483.898" y2="336.947" gradientUnits="userSpaceOnUse"><stop stop-color="#4A517E"></stop><stop offset="1" stop-color="#D0D7ED"></stop></linearGradient><linearGradient id="paint18_linear" x1="498.174" y1="253.233" x2="417.446" y2="348.596" gradientUnits="userSpaceOnUse"><stop stop-color="#A7B2DF"></stop><stop offset="1" stop-color="#D0D7ED"></stop></linearGradient><linearGradient id="paint19_linear" x1="487.796" y1="263.395" x2="484.163" y2="311.692" gradientUnits="userSpaceOnUse"><stop stop-color="#A7B2DF"></stop><stop offset="1" stop-color="#E3E7F3"></stop></linearGradient><linearGradient id="paint20_linear" x1="486.923" y1="236.868" x2="481.421" y2="294.585" gradientUnits="userSpaceOnUse"><stop stop-color="#A7B2DF"></stop><stop offset="1" stop-color="#E3E7F3"></stop></linearGradient><linearGradient id="paint21_linear" x1="355.512" y1="299.978" x2="274.784" y2="395.34" gradientUnits="userSpaceOnUse"><stop stop-color="#A7B2DF"></stop><stop offset="1" stop-color="#D0D7ED"></stop></linearGradient><linearGradient id="paint22_linear" x1="345.132" y1="310.14" x2="341.499" y2="358.437" gradientUnits="userSpaceOnUse"><stop stop-color="#A7B2DF"></stop><stop offset="1" stop-color="#E3E7F3"></stop></linearGradient><linearGradient id="paint23_linear" x1="342.542" y1="297.143" x2="341.232" y2="357.02" gradientUnits="userSpaceOnUse"><stop stop-color="#4A517E"></stop><stop offset="1" stop-color="#D0D7ED"></stop></linearGradient><linearGradient id="paint24_linear" x1="355.512" y1="273.268" x2="274.784" y2="368.63" gradientUnits="userSpaceOnUse"><stop offset="0.317708" stop-color="#A7B2DF"></stop><stop offset="1" stop-color="#D0D7ED"></stop></linearGradient><linearGradient id="paint25_linear" x1="345.132" y1="283.43" x2="341.499" y2="331.727" gradientUnits="userSpaceOnUse"><stop stop-color="#A7B2DF"></stop><stop offset="1" stop-color="#E3E7F3"></stop></linearGradient><linearGradient id="paint26_linear" x1="354.081" y1="273.84" x2="277.673" y2="364.078" gradientUnits="userSpaceOnUse"><stop stop-color="#A7B2DF"></stop><stop offset="1" stop-color="#D0D7ED"></stop></linearGradient><linearGradient id="paint27_linear" x1="342.542" y1="270.499" x2="341.236" y2="330.271" gradientUnits="userSpaceOnUse"><stop stop-color="#4A517E"></stop><stop offset="1" stop-color="#D0D7ED"></stop></linearGradient><linearGradient id="paint28_linear" x1="355.512" y1="246.558" x2="274.784" y2="341.92" gradientUnits="userSpaceOnUse"><stop stop-color="#A7B2DF"></stop><stop offset="1" stop-color="#D0D7ED"></stop></linearGradient><linearGradient id="paint29_linear" x1="345.132" y1="256.72" x2="341.499" y2="305.017" gradientUnits="userSpaceOnUse"><stop stop-color="#A7B2DF"></stop><stop offset="1" stop-color="#E3E7F3"></stop></linearGradient><linearGradient id="paint30_linear" x1="344.259" y1="230.193" x2="338.757" y2="287.91" gradientUnits="userSpaceOnUse"><stop stop-color="#A7B2DF"></stop><stop offset="1" stop-color="#E3E7F3"></stop></linearGradient><linearGradient id="paint31_linear" x1="423.693" y1="343.368" x2="342.966" y2="438.73" gradientUnits="userSpaceOnUse"><stop stop-color="#A7B2DF"></stop><stop offset="1" stop-color="#D0D7ED"></stop></linearGradient><linearGradient id="paint32_linear" x1="413.315" y1="353.53" x2="409.682" y2="401.827" gradientUnits="userSpaceOnUse"><stop stop-color="#A7B2DF"></stop><stop offset="1" stop-color="#E3E7F3"></stop></linearGradient><linearGradient id="paint33_linear" x1="410.724" y1="340.533" x2="409.413" y2="400.41" gradientUnits="userSpaceOnUse"><stop stop-color="#4A517E"></stop><stop offset="1" stop-color="#D0D7ED"></stop></linearGradient><linearGradient id="paint34_linear" x1="423.693" y1="316.658" x2="342.966" y2="412.02" gradientUnits="userSpaceOnUse"><stop offset="0.317708" stop-color="#A7B2DF"></stop><stop offset="1" stop-color="#D0D7ED"></stop></linearGradient><linearGradient id="paint35_linear" x1="413.315" y1="326.819" x2="409.682" y2="375.116" gradientUnits="userSpaceOnUse"><stop stop-color="#A7B2DF"></stop><stop offset="1" stop-color="#E3E7F3"></stop></linearGradient><linearGradient id="paint36_linear" x1="422.264" y1="317.229" x2="345.857" y2="407.468" gradientUnits="userSpaceOnUse"><stop stop-color="#A7B2DF"></stop><stop offset="1" stop-color="#D0D7ED"></stop></linearGradient><linearGradient id="paint37_linear" x1="410.724" y1="313.889" x2="409.418" y2="373.661" gradientUnits="userSpaceOnUse"><stop stop-color="#4A517E"></stop><stop offset="1" stop-color="#D0D7ED"></stop></linearGradient><linearGradient id="paint38_linear" x1="423.693" y1="289.948" x2="342.966" y2="385.31" gradientUnits="userSpaceOnUse"><stop stop-color="#A7B2DF"></stop><stop offset="1" stop-color="#D0D7ED"></stop></linearGradient><linearGradient id="paint39_linear" x1="413.315" y1="300.11" x2="409.682" y2="348.407" gradientUnits="userSpaceOnUse"><stop stop-color="#A7B2DF"></stop><stop offset="1" stop-color="#E3E7F3"></stop></linearGradient><linearGradient id="paint40_linear" x1="412.443" y1="273.583" x2="406.941" y2="331.3" gradientUnits="userSpaceOnUse"><stop stop-color="#A7B2DF"></stop><stop offset="1" stop-color="#E3E7F3"></stop></linearGradient><linearGradient id="paint41_linear" x1="413.255" y1="957.011" x2="342.394" y2="63.9376" gradientUnits="userSpaceOnUse"><stop stop-color="#4D6AB3"></stop><stop offset="0.0001" stop-color="#4D6AB3"></stop><stop offset="1" stop-color="#4DB3AD" stop-opacity="0"></stop></linearGradient><linearGradient id="paint42_linear" x1="390.346" y1="89.8929" x2="390.346" y2="194.612" gradientUnits="userSpaceOnUse"><stop stop-color="#36725F" stop-opacity="0"></stop><stop offset="1" stop-color="#8DBEBA"></stop></linearGradient><linearGradient id="paint43_linear" x1="206.59" y1="421.679" x2="288.409" y2="379.526" gradientUnits="userSpaceOnUse"><stop stop-color="#2DB389" stop-opacity="0.33"></stop><stop offset="1" stop-color="#2DB389" stop-opacity="0"></stop></linearGradient><linearGradient id="paint44_linear" x1="271.547" y1="-46.0666" x2="228.36" y2="376.42" gradientUnits="userSpaceOnUse"><stop stop-color="#4D6AB3"></stop><stop offset="1" stop-color="#4D6AB3" stop-opacity="0"></stop></linearGradient><linearGradient id="paint45_linear" x1="254.561" y1="-37.5724" x2="211.374" y2="384.914" gradientUnits="userSpaceOnUse"><stop stop-color="#4D6AB3"></stop><stop offset="1" stop-color="#4D6AB3" stop-opacity="0"></stop></linearGradient><linearGradient id="paint46_linear" x1="-2.00242" y1="-5.43514" x2="22.5988" y2="41.1927" gradientUnits="userSpaceOnUse"><stop stop-color="white"></stop><stop offset="1" stop-color="white" stop-opacity="0"></stop></linearGradient><linearGradient id="paint47_linear" x1="-2.29354" y1="-6.22532" x2="25.8842" y2="47.1814" gradientUnits="userSpaceOnUse"><stop stop-color="white"></stop><stop offset="1" stop-color="white" stop-opacity="0"></stop></linearGradient><linearGradient id="paint48_linear" x1="-2.00242" y1="-5.43514" x2="22.5988" y2="41.1927" gradientUnits="userSpaceOnUse"><stop stop-color="white"></stop><stop offset="1" stop-color="white" stop-opacity="0"></stop></linearGradient><linearGradient id="paint49_linear" x1="-2.00242" y1="-5.43514" x2="22.5988" y2="41.1927" gradientUnits="userSpaceOnUse"><stop stop-color="white"></stop><stop offset="1" stop-color="white" stop-opacity="0"></stop></linearGradient><linearGradient id="paint50_linear" x1="224.397" y1="389.177" x2="172.815" y2="536.25" gradientUnits="userSpaceOnUse"><stop stop-color="#A7B2DF"></stop><stop offset="1" stop-color="#E3E7F3"></stop></linearGradient><linearGradient id="paint51_linear" x1="140.102" y1="402.393" x2="110.543" y2="547.153" gradientUnits="userSpaceOnUse"><stop stop-color="#A7B2DF"></stop><stop offset="1" stop-color="#E3E7F3"></stop></linearGradient><linearGradient id="paint52_linear" x1="187.381" y1="322.925" x2="167.801" y2="475.567" gradientUnits="userSpaceOnUse"><stop stop-color="#A7B2DF"></stop><stop offset="1" stop-color="#E3E7F3"></stop></linearGradient><linearGradient id="paint53_linear" x1="142.157" y1="573.32" x2="128.92" y2="623.605" gradientUnits="userSpaceOnUse"><stop stop-color="#2DB389" stop-opacity="0.33"></stop><stop offset="1" stop-color="#2DB389" stop-opacity="0"></stop></linearGradient><linearGradient id="paint54_linear" x1="157.829" y1="494.176" x2="73.5329" y2="509.77" gradientUnits="userSpaceOnUse"><stop stop-color="#A7B2DF"></stop><stop offset="1" stop-color="#E3E7F3"></stop></linearGradient><linearGradient id="paint55_linear" x1="0.160949" y1="464.231" x2="-4.13418" y2="570.734" gradientUnits="userSpaceOnUse"><stop stop-color="#A7B2DF"></stop><stop offset="1" stop-color="#E3E7F3"></stop></linearGradient><linearGradient id="paint56_linear" x1="82.1781" y1="425.394" x2="52.8384" y2="392.339" gradientUnits="userSpaceOnUse"><stop stop-color="#2B2B52"></stop><stop offset="1" stop-color="#7A7A92"></stop></linearGradient><linearGradient id="paint57_linear" x1="29.6226" y1="241.419" x2="8.43728" y2="185.977" gradientUnits="userSpaceOnUse"><stop stop-color="#25916F"></stop><stop offset="1" stop-color="#20795D"></stop></linearGradient><linearGradient id="paint58_linear" x1="28.8585" y1="241.412" x2="2.02567" y2="180.659" gradientUnits="userSpaceOnUse"><stop stop-color="#8BCDB8"></stop><stop offset="1" stop-color="#25916F"></stop></linearGradient><linearGradient id="paint59_linear" x1="-5.56908" y1="186.228" x2="12.7719" y2="228.01" gradientUnits="userSpaceOnUse"><stop stop-color="#217E61"></stop><stop offset="1" stop-color="#2DB389" stop-opacity="0"></stop></linearGradient></defs></svg>