<svg width="207" height="34" viewBox="0 0 207 34" fill="none" xmlns="http://www.w3.org/2000/svg">
<path fill-rule="evenodd" clip-rule="evenodd" d="M0.352908 27.5285C0.929673 28.8631 1.73892 29.8489 2.78925 30.501C3.83949 31.1532 5.1652 31.4792 6.76649 31.4792C8.23006 31.4792 9.41802 31.1228 10.3478 30.4024C11.269 29.6821 11.7339 28.7721 11.7339 27.6574C11.7339 26.7854 11.4325 26.0346 10.8213 25.3977C10.2186 24.7607 8.90145 23.9493 6.86119 22.9712C4.70897 21.9399 3.21101 20.9617 2.35874 20.0442C1.50648 19.1267 1.08471 18.065 1.08471 16.8669C1.08471 15.2517 1.78194 13.9929 3.16799 13.0906C4.55401 12.1883 6.5082 11.7333 9.03065 11.7333C9.8054 11.7333 10.6663 11.7864 11.6047 11.8849C12.5516 11.9911 13.533 12.1428 14.5575 12.3323L14.4026 16.1997C13.7654 15.2063 12.9993 14.4708 12.1126 14.0006C11.2173 13.5228 10.1756 13.2878 8.97897 13.2878C7.77368 13.2878 6.80954 13.5456 6.09499 14.0537C5.38047 14.5618 5.01894 15.2517 5.01894 16.1086C5.01894 17.6025 6.74931 19.2328 10.2186 20.9996C10.4252 21.0981 10.5803 21.1816 10.7007 21.2423C12.7841 22.2811 14.1701 23.191 14.8675 23.9872C15.5647 24.7759 15.9177 25.7161 15.9177 26.7929C15.9177 28.5142 15.0052 29.993 13.1714 31.2442C11.3378 32.4953 9.1339 33.1246 6.55988 33.1246C4.67458 33.1246 3.11631 32.9276 1.86812 32.5332C0.61982 32.1465 0 31.6536 0 31.0621C0 30.8195 0.0343905 30.3873 0.0860704 29.7578C0.146263 29.1285 0.240997 28.3854 0.352908 27.5285ZM19.7714 9.13239L17.5589 6.04606L21.4157 3.91528L23.5851 7.04708L19.7714 9.13239ZM17.9549 32.5712C18.3595 32.3057 18.6436 31.7901 18.7986 31.0242C18.9622 30.266 19.0397 28.8555 19.0397 26.7929V22.4177V19.885C19.0397 16.8669 18.9622 14.8954 18.7986 13.9626C18.6436 13.0375 18.3681 12.4689 17.9808 12.2413C18.9536 12.2186 19.8574 12.1579 20.6925 12.0745C21.5276 11.9987 22.3024 11.8925 23.0255 11.7561C22.9309 12.4537 22.862 13.7428 22.8276 15.6309C22.7931 17.5191 22.7759 20.4082 22.7759 24.283V26.8839C22.7759 28.8707 22.8533 30.2431 23.0169 31.0014C23.1719 31.7673 23.4559 32.2905 23.8606 32.5712H17.9549ZM25.6396 27.5285C26.2164 28.8631 27.0256 29.8489 28.0759 30.501C29.1261 31.1532 30.4519 31.4792 32.0531 31.4792C33.5166 31.4792 34.7047 31.1228 35.6344 30.4024C36.5556 29.6821 37.0204 28.7721 37.0204 27.6574C37.0204 26.7854 36.7191 26.0346 36.1079 25.3977C35.5053 24.7607 34.1881 23.9493 32.1478 22.9712C29.9957 21.9399 28.4977 20.9617 27.6454 20.0442C26.7932 19.1267 26.3713 18.065 26.3713 16.8669C26.3713 15.2517 27.0687 13.9929 28.4547 13.0906C29.8407 12.1883 31.7949 11.7333 34.3172 11.7333C35.0921 11.7333 35.9529 11.7864 36.8914 11.8849C37.8383 11.9911 38.8197 12.1428 39.8441 12.3323L39.6892 16.1997C39.0521 15.2063 38.2859 14.4708 37.3993 14.0006C36.5039 13.5228 35.4623 13.2878 34.2657 13.2878C33.0604 13.2878 32.0962 13.5456 31.3817 14.0537C30.6672 14.5618 30.3055 15.2517 30.3055 16.1086C30.3055 17.6025 32.0359 19.2328 35.5053 20.9996C35.7119 21.0981 35.8668 21.1816 35.9874 21.2423C38.0708 22.2811 39.4567 23.191 40.154 23.9872C40.8514 24.7759 41.2043 25.7161 41.2043 26.7929C41.2043 28.5142 40.2918 29.993 38.4581 31.2442C36.6244 32.4953 34.4206 33.1246 31.8465 33.1246C29.9612 33.1246 28.403 32.9276 27.1547 32.5332C25.9064 32.1465 25.2866 31.6536 25.2866 31.0621C25.2866 30.8195 25.3211 30.3873 25.3727 29.7578C25.433 29.1285 25.5277 28.3854 25.6396 27.5285ZM44.6534 13.955L42.1569 13.8641V12.4158L44.7051 12.2413L44.8083 6.5997L48.5619 5.59868L48.4068 12.2413H52.5993C52.7887 12.2413 52.9006 12.2565 52.9437 12.2868C52.9868 12.3171 53.004 12.393 53.004 12.5068C53.004 12.9693 52.651 13.3106 51.9537 13.5304C51.2564 13.7504 50.2061 13.8641 48.8115 13.8641H48.4068L48.1572 25.8375V26.1485C48.1572 27.6877 48.3638 28.7873 48.777 29.447C49.1902 30.1067 49.8532 30.4328 50.7829 30.4328C51.3339 30.4328 51.8589 30.3189 52.3497 30.0991C52.8318 29.8792 53.3312 29.5304 53.8391 29.0603L53.6841 31.1C53.0642 31.7522 52.3238 32.2526 51.4802 32.6015C50.628 32.9503 49.724 33.1246 48.7685 33.1246C47.3221 33.1246 46.2289 32.6469 45.4885 31.684C44.7481 30.7208 44.3779 29.2877 44.3779 27.3919V27.0129L44.6534 13.955ZM59.5609 18.1029H60.0171C60.086 18.1029 60.4993 18.1181 61.2654 18.1484C62.0316 18.1787 62.7719 18.194 63.4951 18.194H64.158C66.4393 18.194 67.8512 18.0877 68.385 17.8755C68.91 17.6555 69.1769 17.2461 69.1769 16.6395C69.1769 15.7218 68.7723 14.9333 67.9544 14.2736C67.1367 13.6138 66.1295 13.2878 64.9414 13.2878C63.5382 13.2878 62.3415 13.7352 61.3428 14.63C60.3443 15.5247 59.7502 16.685 59.5609 18.1029ZM73.1112 27.6119V28.1427C73.1112 29.3635 72.2675 30.4934 70.5888 31.5475C68.91 32.6015 66.9903 33.1246 64.8381 33.1246C61.7389 33.1246 59.2681 32.1692 57.4173 30.2508C55.5664 28.3323 54.6452 25.7465 54.6452 22.5086C54.6452 19.2025 55.6181 16.5864 57.5723 14.6451C59.5264 12.7039 62.1263 11.7333 65.3891 11.7333C67.7823 11.7333 69.7193 12.302 71.2172 13.4318C72.7152 14.5618 73.4641 15.9949 73.4641 17.7313C73.4641 18.4366 73.0078 18.9143 72.1039 19.1494C71.1914 19.3844 68.5742 19.5058 64.2527 19.5058C62.9785 19.5058 61.98 19.4982 61.2654 19.4831C60.5509 19.4678 59.8794 19.4451 59.2596 19.4147C59.1219 19.8167 59.0271 20.2261 58.9668 20.6508C58.9066 21.0754 58.8807 21.5304 58.8807 22.0158C58.8807 24.5636 59.5695 26.5731 60.9383 28.0441C62.307 29.5228 64.158 30.2583 66.4738 30.2583C67.7393 30.2583 68.91 30.0385 69.9948 29.5987C71.0795 29.1664 72.1212 28.4991 73.1112 27.6119ZM74.563 32.5712C74.9676 32.3057 75.2517 31.7901 75.4066 31.0242C75.5702 30.266 75.6477 28.8555 75.6477 26.7929V22.4177V21.0147C75.6477 17.7313 75.5702 15.5778 75.4066 14.5769C75.2517 13.5683 74.9676 12.939 74.563 12.6887L79.2806 12.2413C79.3668 12.5977 79.427 12.939 79.47 13.2727C79.513 13.6063 79.5303 13.9323 79.5303 14.2432V14.6831C80.5117 13.7352 81.6223 13.0072 82.8619 12.4992C84.1102 11.9911 85.3843 11.7333 86.7014 11.7333C87.9239 11.7333 88.9741 12.0139 89.8522 12.575C90.7218 13.1361 91.3675 13.9475 91.772 14.994C92.9428 13.8717 94.1137 13.0451 95.2586 12.5219C96.4122 11.9987 97.626 11.7333 98.9088 11.7333C100.166 11.7333 101.25 12.0139 102.146 12.575C103.05 13.1437 103.687 13.9399 104.074 14.9788C104.263 15.4944 104.393 16.2679 104.47 17.284C104.548 18.3077 104.582 20.0518 104.582 22.5086V26.702V27.9683C104.582 29.5532 104.659 30.645 104.823 31.2366C104.978 31.828 105.262 32.2754 105.667 32.5712H100.674C100.751 31.1456 100.82 29.6441 100.863 28.0517C100.906 26.4593 100.923 24.1693 100.923 21.1968V20.5977C100.923 17.7996 100.622 16.0252 100.019 15.2745C99.4081 14.5238 98.3492 14.1523 96.8341 14.1523C96.0679 14.1523 95.3533 14.2963 94.6905 14.5769C94.0362 14.8574 93.4766 15.2669 93.0031 15.8205C92.6329 16.2603 92.366 16.9579 92.2111 17.9058C92.0475 18.8536 91.9701 20.484 91.9701 22.7968V27.7483C91.9701 29.2574 92.0562 30.3721 92.2197 31.0848C92.3919 31.7901 92.6673 32.2905 93.0548 32.5712H87.2265C87.614 32.3057 87.8809 31.828 88.0358 31.138C88.1822 30.4479 88.2597 29.0906 88.2597 27.0584V25.3294V18.6868C88.2597 17.0868 87.9411 15.9266 87.3041 15.2214C86.6584 14.5087 85.6167 14.1523 84.1705 14.1523C83.4215 14.1523 82.7242 14.2963 82.0785 14.5769C81.4415 14.8574 80.8904 15.2669 80.417 15.8205C80.0123 16.2603 79.7283 16.9503 79.5734 17.8755C79.4098 18.8006 79.3323 20.2869 79.3323 22.3266C79.3323 22.8043 79.341 23.6384 79.3581 24.8365C79.3753 26.0422 79.384 27.0129 79.384 27.7483C79.384 29.2574 79.4614 30.3721 79.625 31.0848C79.78 31.7901 80.064 32.2905 80.4687 32.5712H74.563ZM119.963 21.6366C116.098 23.0015 113.67 24.0556 112.697 24.8062C111.724 25.5494 111.234 26.4441 111.234 27.483C111.234 28.3551 111.604 29.0603 112.344 29.6138C113.084 30.1597 114.057 30.4328 115.271 30.4328C116.872 30.4328 118.052 29.9778 118.818 29.0679C119.584 28.1578 119.963 26.7474 119.963 24.8365V21.6366ZM120.746 32.8366C120.54 32.3589 120.385 31.828 120.281 31.2366C120.169 30.645 120.101 30.0006 120.066 29.3029C119.395 30.5313 118.491 31.4792 117.363 32.1389C116.235 32.7986 114.953 33.1246 113.506 33.1246C111.724 33.1246 110.192 32.6469 108.918 31.6915C107.635 30.7361 106.998 29.6214 106.998 28.3475C106.998 27.1645 107.532 26.1332 108.591 25.2613C109.65 24.3892 111.957 23.2594 115.521 21.8868C117.639 21.0527 118.938 20.3779 119.412 19.8621C119.877 19.3465 120.118 18.4972 120.118 17.3294C120.118 15.8888 119.765 14.8422 119.068 14.1826C118.37 13.5228 117.268 13.1967 115.779 13.1967C115.09 13.1967 114.471 13.303 113.92 13.5077C113.377 13.7125 112.938 14.0157 112.62 14.4176C112.49 14.5997 112.301 14.9257 112.069 15.3959C111.432 16.7456 110.597 17.4205 109.572 17.4205C109.012 17.4205 108.565 17.2612 108.212 16.9503C107.859 16.6395 107.678 16.2376 107.678 15.7295C107.678 14.5618 108.573 13.6063 110.355 12.8556C112.137 12.1049 114.514 11.7333 117.492 11.7333C119.765 11.7333 121.401 12.067 122.399 12.7418C123.398 13.4167 123.897 14.539 123.897 16.1086C123.897 16.3589 123.854 17.466 123.759 19.4299C123.665 21.3939 123.622 23.2442 123.622 24.9731C123.622 27.1949 123.768 28.9389 124.061 30.2053C124.353 31.4716 124.801 32.2602 125.386 32.5712L120.746 32.8366ZM126.287 27.5285C126.864 28.8631 127.673 29.8489 128.724 30.501C129.774 31.1532 131.1 31.4792 132.701 31.4792C134.164 31.4792 135.352 31.1228 136.282 30.4024C137.203 29.6821 137.668 28.7721 137.668 27.6574C137.668 26.7854 137.367 26.0346 136.756 25.3977C136.153 24.7607 134.836 23.9493 132.796 22.9712C130.643 21.9399 129.145 20.9617 128.293 20.0442C127.441 19.1267 127.019 18.065 127.019 16.8669C127.019 15.2517 127.716 13.9929 129.102 13.0906C130.488 12.1883 132.443 11.7333 134.965 11.7333C135.74 11.7333 136.601 11.7864 137.539 11.8849C138.486 11.9911 139.467 12.1428 140.492 12.3323L140.337 16.1997C139.7 15.2063 138.934 14.4708 138.047 14.0006C137.152 13.5228 136.11 13.2878 134.913 13.2878C133.708 13.2878 132.744 13.5456 132.029 14.0537C131.315 14.5618 130.953 15.2517 130.953 16.1086C130.953 17.6025 132.684 19.2328 136.153 20.9996C136.36 21.0981 136.515 21.1816 136.635 21.2423C138.719 22.2811 140.105 23.191 140.802 23.9872C141.499 24.7759 141.852 25.7161 141.852 26.7929C141.852 28.5142 140.94 29.993 139.106 31.2442C137.272 32.4953 135.068 33.1246 132.494 33.1246C130.609 33.1246 129.051 32.9276 127.802 32.5332C126.554 32.1465 125.934 31.6536 125.934 31.0621C125.934 30.8195 125.969 30.3873 126.02 29.7578C126.081 29.1285 126.175 28.3854 126.287 27.5285Z" fill="#606062"/>
<path fill-rule="evenodd" clip-rule="evenodd" d="M201.919 29.1428H206.776V33.9999H201.919V29.1428Z" fill="#8E3429"/>
<path fill-rule="evenodd" clip-rule="evenodd" d="M201.919 24.2859H206.776V29.1429H201.919V24.2859Z" fill="#8E3429"/>
<path fill-rule="evenodd" clip-rule="evenodd" d="M201.919 19.4287H206.776V24.2859H201.919V19.4287Z" fill="#8E3429"/>
<path fill-rule="evenodd" clip-rule="evenodd" d="M201.919 14.5713H206.776V19.4287H201.919V14.5713Z" fill="#8E3429"/>
<path fill-rule="evenodd" clip-rule="evenodd" d="M201.919 9.71411H206.776V14.5712H201.919V9.71411Z" fill="#8E3429"/>
<path fill-rule="evenodd" clip-rule="evenodd" d="M201.919 4.85718H206.776V33.9996H201.919V4.85718Z" fill="#8E3429"/>
<path fill-rule="evenodd" clip-rule="evenodd" d="M197.062 29.1428H201.919V33.9999H197.062V29.1428Z" fill="#8E3429"/>
<path fill-rule="evenodd" clip-rule="evenodd" d="M197.062 24.2859H201.919V29.1429H197.062V24.2859Z" fill="#8E3429"/>
<path fill-rule="evenodd" clip-rule="evenodd" d="M197.062 19.4287H201.919V24.2859H197.062V19.4287Z" fill="#8E3429"/>
<path fill-rule="evenodd" clip-rule="evenodd" d="M197.062 14.5713H201.919V19.4287H197.062V14.5713Z" fill="#8E3429"/>
<path fill-rule="evenodd" clip-rule="evenodd" d="M197.062 9.71411H201.919V14.5712H197.062V9.71411Z" fill="#8E3429"/>
<path fill-rule="evenodd" clip-rule="evenodd" d="M197.062 0H201.919V4.85705H197.062V0Z" fill="#8E3429"/>
<path fill-rule="evenodd" clip-rule="evenodd" d="M192.205 29.1428H197.062V33.9999H192.205V29.1428Z" fill="#8E3429"/>
<path fill-rule="evenodd" clip-rule="evenodd" d="M192.205 24.2859H197.062V29.1429H192.205V24.2859Z" fill="#8E3429"/>
<path fill-rule="evenodd" clip-rule="evenodd" d="M192.205 19.4287H197.062V24.2859H192.205V19.4287Z" fill="#8E3429"/>
<path fill-rule="evenodd" clip-rule="evenodd" d="M192.205 14.5713H197.062V19.4287H192.205V14.5713Z" fill="#8E3429"/>
<path fill-rule="evenodd" clip-rule="evenodd" d="M192.205 9.71411H197.062V14.5712H192.205V9.71411Z" fill="#8E3429"/>
<path fill-rule="evenodd" clip-rule="evenodd" d="M192.205 4.85693H197.062V9.71409H192.205V4.85693Z" fill="#8E3429"/>
<path fill-rule="evenodd" clip-rule="evenodd" d="M192.312 0H197.169V4.85705H192.312V0Z" fill="#8E3429"/>
<path fill-rule="evenodd" clip-rule="evenodd" d="M187.348 29.1428H192.205V33.9999H187.348V29.1428Z" fill="#8E3429"/>
<path fill-rule="evenodd" clip-rule="evenodd" d="M187.348 24.2859H192.205V29.1429H187.348V24.2859Z" fill="#8E3429"/>
<path fill-rule="evenodd" clip-rule="evenodd" d="M187.348 19.4287H192.205V24.2859H187.348V19.4287Z" fill="#8E3429"/>
<path fill-rule="evenodd" clip-rule="evenodd" d="M187.348 14.5713H192.205V19.4287H187.348V14.5713Z" fill="#8E3429"/>
<path fill-rule="evenodd" clip-rule="evenodd" d="M187.348 9.71411H192.205V14.5712H187.348V9.71411Z" fill="#8E3429"/>
<path fill-rule="evenodd" clip-rule="evenodd" d="M187.348 4.85693H192.205V9.71409H187.348V4.85693Z" fill="#8E3429"/>
<path fill-rule="evenodd" clip-rule="evenodd" d="M187.348 0H192.205V4.85705H187.348V0Z" fill="#8E3429"/>
<path fill-rule="evenodd" clip-rule="evenodd" d="M182.49 29.1428H187.348V33.9999H182.49V29.1428Z" fill="#8E3429"/>
<path fill-rule="evenodd" clip-rule="evenodd" d="M182.49 24.2859H187.348V29.1429H182.49V24.2859Z" fill="#8E3429"/>
<path fill-rule="evenodd" clip-rule="evenodd" d="M182.49 19.4287H187.348V24.2859H182.49V19.4287Z" fill="#8E3429"/>
<path fill-rule="evenodd" clip-rule="evenodd" d="M182.49 14.5713H187.348V19.4287H182.49V14.5713Z" fill="#8E3429"/>
<path fill-rule="evenodd" clip-rule="evenodd" d="M182.49 9.71411H187.348V14.5712H182.49V9.71411Z" fill="#8E3429"/>
<path fill-rule="evenodd" clip-rule="evenodd" d="M182.49 4.85693H187.348V9.71409H182.49V4.85693Z" fill="#8E3429"/>
<path fill-rule="evenodd" clip-rule="evenodd" d="M182.384 0H187.241V4.85705H182.384V0Z" fill="#8E3429"/>
<path fill-rule="evenodd" clip-rule="evenodd" d="M177.634 29.1428H182.491V33.9999H177.634V29.1428Z" fill="#8E3429"/>
<path fill-rule="evenodd" clip-rule="evenodd" d="M177.634 24.2859H182.491V29.1429H177.634V24.2859Z" fill="#8E3429"/>
<path fill-rule="evenodd" clip-rule="evenodd" d="M177.634 19.4287H182.491V24.2859H177.634V19.4287Z" fill="#8E3429"/>
<path fill-rule="evenodd" clip-rule="evenodd" d="M177.634 14.5713H182.491V19.4287H177.634V14.5713Z" fill="#8E3429"/>
<path fill-rule="evenodd" clip-rule="evenodd" d="M177.634 9.71411H182.491V14.5712H177.634V9.71411Z" fill="#8E3429"/>
<path fill-rule="evenodd" clip-rule="evenodd" d="M177.634 4.85693H182.491V9.71409H177.634V4.85693Z" fill="#8E3429"/>
<path fill-rule="evenodd" clip-rule="evenodd" d="M177.527 0H182.384V4.85705H177.527V0Z" fill="#8E3429"/>
<path fill-rule="evenodd" clip-rule="evenodd" d="M172.777 27.5232H206.776V34H172.777V27.5232Z" fill="#8E3429"/>
<path fill-rule="evenodd" clip-rule="evenodd" d="M172.776 24.2859H177.634V29.1429H172.776V24.2859Z" fill="#8E3429"/>
<path fill-rule="evenodd" clip-rule="evenodd" d="M172.776 19.4287H177.634V24.2859H172.776V19.4287Z" fill="#8E3429"/>
<path fill-rule="evenodd" clip-rule="evenodd" d="M172.776 14.5713H177.634V19.4287H172.776V14.5713Z" fill="#8E3429"/>
<path fill-rule="evenodd" clip-rule="evenodd" d="M172.776 9.71411H177.634V14.5712H172.776V9.71411Z" fill="#8E3429"/>
<path fill-rule="evenodd" clip-rule="evenodd" d="M172.777 4.35815H197.062V29.1425H172.777V4.35815Z" fill="#8E3429"/>
<path fill-rule="evenodd" clip-rule="evenodd" d="M172.776 0H177.634V4.85705H172.776V0Z" fill="#8E3429"/>
<path fill-rule="evenodd" clip-rule="evenodd" d="M153.353 29.1428H167.919V33.9999H153.353V29.1428Z" fill="#8E3429"/>
<path fill-rule="evenodd" clip-rule="evenodd" d="M167.919 24.2859H172.776V29.1429H167.919V24.2859Z" fill="#8E3429"/>
<path fill-rule="evenodd" clip-rule="evenodd" d="M167.919 19.4287H172.776V24.2859H167.919V19.4287Z" fill="#8E3429"/>
<path fill-rule="evenodd" clip-rule="evenodd" d="M167.919 13.5393H206.777V28.7948H167.919V13.5393Z" fill="#8E3429"/>
<path fill-rule="evenodd" clip-rule="evenodd" d="M153.353 19.4287H158.211V24.2859H153.353V19.4287Z" fill="#8E3429"/>
<path fill-rule="evenodd" clip-rule="evenodd" d="M167.919 9.71411H172.776V14.5712H167.919V9.71411Z" fill="#8E3429"/>
<path fill-rule="evenodd" clip-rule="evenodd" d="M153.353 4.85693H158.211V9.71409H153.353V4.85693Z" fill="#8E3429"/>
<path fill-rule="evenodd" clip-rule="evenodd" d="M168.026 0H201.92V4.85705H168.026V0Z" fill="#8E3429"/>
<path fill-rule="evenodd" clip-rule="evenodd" d="M163.062 29.1428H167.919V33.9999H163.062V29.1428Z" fill="#8E3429"/>
<path fill-rule="evenodd" clip-rule="evenodd" d="M148.496 24.2859H153.353V29.1429H148.496V24.2859Z" fill="#8E3429"/>
<path fill-rule="evenodd" clip-rule="evenodd" d="M163.062 24.2859H167.919V29.1429H163.062V24.2859Z" fill="#8E3429"/>
<path fill-rule="evenodd" clip-rule="evenodd" d="M163.062 19.4287H206.776V25.1693H163.062V19.4287Z" fill="#8E3429"/>
<path fill-rule="evenodd" clip-rule="evenodd" d="M163.062 9.71411H206.776V14.5712H163.062V9.71411Z" fill="#8E3429"/>
<path fill-rule="evenodd" clip-rule="evenodd" d="M163.062 4.85693H167.919V14.571H163.062V4.85693Z" fill="#8E3429"/>
<path fill-rule="evenodd" clip-rule="evenodd" d="M143.639 29.1428H148.496V33.9999H143.639V29.1428Z" fill="#8E3429"/>
<path fill-rule="evenodd" clip-rule="evenodd" d="M158.205 27.6177H163.062V34.0001H158.205V27.6177Z" fill="#8E3429"/>
<path fill-rule="evenodd" clip-rule="evenodd" d="M158.205 24.2859H206.776V29.1429H158.205V24.2859Z" fill="#8E3429"/>
<path fill-rule="evenodd" clip-rule="evenodd" d="M143.639 19.4287H148.496V24.2859H143.639V19.4287Z" fill="#8E3429"/>
<path fill-rule="evenodd" clip-rule="evenodd" d="M158.205 14.5713H163.062V19.4287H158.205V14.5713Z" fill="#8E3429"/>
<path fill-rule="evenodd" clip-rule="evenodd" d="M143.639 9.71411H148.496V14.5712H143.639V9.71411Z" fill="#8E3429"/>
<path fill-rule="evenodd" clip-rule="evenodd" d="M158.205 0H163.062V4.85705H158.205V0Z" fill="#8E3429"/>
<path fill-rule="evenodd" clip-rule="evenodd" d="M175.067 14.0341L172.57 13.9431V12.4948L175.118 12.3203L175.222 6.67871L178.975 5.67769L178.82 12.3203H183.013C183.202 12.3203 183.314 12.3355 183.357 12.3658C183.4 12.3962 183.417 12.4721 183.417 12.5858C183.417 13.0483 183.064 13.3896 182.367 13.6094C181.67 13.8294 180.619 13.9431 179.225 13.9431H178.82L178.57 25.9165V26.2275C178.57 27.7667 178.777 28.8663 179.19 29.5261C179.604 30.1857 180.266 30.5118 181.196 30.5118C181.747 30.5118 182.272 30.3979 182.763 30.1781C183.245 29.9582 183.744 29.6094 184.252 29.1393L184.097 31.179C183.477 31.8312 182.737 32.3316 181.893 32.6805C181.041 33.0293 180.137 33.2036 179.182 33.2036C177.735 33.2036 176.642 32.7259 175.902 31.763C175.161 30.7999 174.791 29.3667 174.791 27.4709V27.0919L175.067 14.0341ZM185.885 32.6502C186.324 32.4302 186.634 31.7402 186.806 30.5876C186.987 29.4274 187.073 27.4406 187.073 24.6047C187.073 23.6568 187.056 21.708 187.021 18.7583C186.987 15.8009 186.97 13.3138 186.97 11.3043V7.63411C186.97 5.45787 186.892 3.96397 186.729 3.16018C186.574 2.34878 186.29 1.81044 185.885 1.52985L191.007 0.748779L190.603 15.4597C191.765 14.1402 192.918 13.1999 194.063 12.6464C195.2 12.0929 196.568 11.8123 198.144 11.8123C199.478 11.8123 200.589 12.1005 201.501 12.6692C202.405 13.2378 203.068 14.0644 203.464 15.1412C203.654 15.6644 203.783 16.4455 203.86 17.4995C203.938 18.5535 203.972 20.3279 203.972 22.8302V27.1829V27.8729C203.972 29.5032 204.05 30.6255 204.213 31.2398C204.368 31.8539 204.652 32.3241 205.057 32.6502H200.012C200.089 31.2701 200.158 29.5335 200.201 27.4406C200.244 25.3477 200.262 22.58 200.262 19.1449C200.262 17.3781 199.926 16.1421 199.254 15.437C198.583 14.7241 197.447 14.3677 195.845 14.3677C193.951 14.3677 192.617 14.8303 191.851 15.7554C191.085 16.6806 190.706 18.9326 190.706 22.4967V26.872C190.706 28.9345 190.783 30.345 190.947 31.1032C191.102 31.8691 191.386 32.3847 191.791 32.6502H185.885Z" fill="#FFFFFE"/>
</svg>
